<svg xmlns="http://www.w3.org/2000/svg">
<defs>
<font id="UTMCharlotte" horiz-adv-x="1091" >
  <font-face 
    font-family="UTM Charlotte"
    font-weight="400"
    font-stretch="normal"
    units-per-em="2048"
    panose-1="2 4 6 3 5 5 6 2 2 4"
    ascent="1638"
    descent="-410"
    x-height="1108"
    cap-height="1257"
    bbox="-159 -372 4942 2045"
    underline-thickness="109"
    underline-position="-143"
    unicode-range="U+0020-2026"
  />
<missing-glyph horiz-adv-x="5040" 
d="M3351 2045h10q37 -10 37 -52q0 -12 -32 -57h-28q0 24 28 54l2 10q-5 13 -10 15h-9q-8 0 -10 -19h-30q6 49 42 49zM2019 2016l29 -31q0 -16 -40 -30h-19l-59 12l-11 -12l-28 25q11 29 43 29h11l42 -11h2q10 0 30 18zM468 1980h142v-60h-94v-75h89v-59h-89v-129l-5 -5h-49
v323zM1155 1980h43l6 -5v-78h30v-52h-30v-188l-6 -5h-49v193h-25v52h25v78zM1621 1980h42l4 -5v-94h3q23 24 54 24h2q58 0 83 -71l2 -39v-143h-52v115q0 80 -42 80h-7q-43 0 -43 -86v-109h-51v323zM2200 1980h49l5 -5v-222q10 -51 45 -51q44 7 44 59v214l5 5h49v-216
q0 -85 -66 -112q-15 -8 -35 -8q-47 0 -82 55q-14 24 -14 57v224zM2435 1980h159v-60h-56v-268h-53v268h-55v55zM2621 1980h71q7 -4 83 -251h2l80 251h73v-328h-54v242h-2l-74 -242h-44q-4 0 -58 182l-19 60h-3v-242h-55v328zM3760 1980h52v-328h-45l-5 5v11l3 2l-3 14
q-29 -40 -78 -40q-67 0 -100 91l-5 39v3q0 94 92 125l23 3q35 0 63 -32h3v107zM2057 1928h36l4 -6v-49h-45v-221h-48v23q-23 -31 -59 -31q-89 14 -89 97v156h51v-104q0 -79 26 -86l18 -5h6q26 0 39 36l3 26v133h53v25zM3476 1928v-55h-31v-221h-47v25h-2q-15 -33 -57 -33
q-68 0 -86 78l-3 29v146h52v-120q0 -50 19 -68l21 -7h9q42 0 42 69v126h27q4 0 4 28l3 3h49zM758 1905q68 0 103 -77q9 -18 12 -54q0 -88 -90 -127l-32 -3q-63 0 -101 73q-12 22 -12 52v10q0 94 101 126h19zM1011 1905h3q74 0 83 -101v-152h-51v119q0 76 -42 76h-5
q-44 0 -44 -76v-119h-52v245h46v-21q30 29 62 29zM1466 1905h7q72 0 105 -89h-60q-16 31 -42 31h-17q-53 -14 -53 -61l-3 -15q12 -69 61 -69h9q22 0 47 27h40l2 3h3l2 -3l2 3l3 -3l2 3l2 -7q-33 -81 -110 -81q-76 0 -110 94l-4 36v3q0 85 77 120q15 8 37 8zM3141 1905h2

<glyph glyph-name=".notdef" horiz-adv-x="5040" 
d="M3351 2045h10q37 -10 37 -52q0 -12 -32 -57h-28q0 24 28 54l2 10q-5 13 -10 15h-9q-8 0 -10 -19h-30q6 49 42 49zM2019 2016l29 -31q0 -16 -40 -30h-19l-59 12l-11 -12l-28 25q11 29 43 29h11l42 -11h2q10 0 30 18zM468 1980h142v-60h-94v-75h89v-59h-89v-129l-5 -5h-49
v323zM1155 1980h43l6 -5v-78h30v-52h-30v-188l-6 -5h-49v193h-25v52h25v78zM1621 1980h42l4 -5v-94h3q23 24 54 24h2q58 0 83 -71l2 -39v-143h-52v115q0 80 -42 80h-7q-43 0 -43 -86v-109h-51v323zM2200 1980h49l5 -5v-222q10 -51 45 -51q44 7 44 59v214l5 5h49v-216
q0 -85 -66 -112q-15 -8 -35 -8q-47 0 -82 55q-14 24 -14 57v224zM2435 1980h159v-60h-56v-268h-53v268h-55v55zM2621 1980h71q7 -4 83 -251h2l80 251h73v-328h-54v242h-2l-74 -242h-44q-4 0 -58 182l-19 60h-3v-242h-55v328zM3760 1980h52v-328h-45l-5 5v11l3 2l-3 14
q-29 -40 -78 -40q-67 0 -100 91l-5 39v3q0 94 92 125l23 3q35 0 63 -32h3v107zM2057 1928h36l4 -6v-49h-45v-221h-48v23q-23 -31 -59 -31q-89 14 -89 97v156h51v-104q0 -79 26 -86l18 -5h6q26 0 39 36l3 26v133h53v25zM3476 1928v-55h-31v-221h-47v25h-2q-15 -33 -57 -33
q-68 0 -86 78l-3 29v146h52v-120q0 -50 19 -68l21 -7h9q42 0 42 69v126h27q4 0 4 28l3 3h49zM758 1905q68 0 103 -77q9 -18 12 -54q0 -88 -90 -127l-32 -3q-63 0 -101 73q-12 22 -12 52v10q0 94 101 126h19zM1011 1905h3q74 0 83 -101v-152h-51v119q0 76 -42 76h-5
q-44 0 -44 -76v-119h-52v245h46v-21q30 29 62 29zM1466 1905h7q72 0 105 -89h-60q-16 31 -42 31h-17q-53 -14 -53 -61l-3 -15q12 -69 61 -69h9q22 0 47 27h40l2 3h3l2 -3l2 3l3 -3l2 3l2 -7q-33 -81 -110 -81q-76 0 -110 94l-4 36v3q0 85 77 120q15 8 37 8zM3141 1905h2
q49 0 70 -60v-14h-52q0 16 -16 16h-4q-14 0 -19 -13v-13q0 -9 68 -35q30 -19 30 -59q0 -58 -61 -80l-23 -3q-76 12 -76 83h54q0 -20 27 -25h4q19 0 24 23q0 22 -68 44q-34 27 -34 59q0 66 74 77zM4203 1905q55 0 77 -63q7 -18 7 -65v-125h-52v112q0 83 -40 83h-11
q-33 0 -40 -54v-141h-52v5h-2l2 2v238h47v-21q25 29 64 29zM4432 1905h5q40 0 69 -40v18l-3 3l3 11h47v-208q0 -97 -85 -132l-33 -4h-7q-70 0 -104 80h59q24 -22 45 -23h13q22 0 43 22q15 13 22 52h-3q-32 -40 -73 -40q-57 0 -96 70q-10 18 -14 63q0 88 87 125zM3851 1897
h53v-136q6 -59 40 -59h7q46 0 46 93v102h51v-245h-47l-3 10h3l-3 3v5l3 2v3h-4q0 -23 -57 -31h-3q-59 0 -84 75l-2 85v93zM690 1771q10 -69 63 -69h7q59 14 59 65v15q-13 65 -59 65h-5q-58 0 -65 -76zM3630 1774q13 -72 61 -72h5q58 0 66 75q0 49 -51 70h-22q-37 0 -56 -57z
M4374 1774q8 -72 65 -72h5q59 12 59 72q0 61 -59 73h-14q-56 -16 -56 -62v-11zM3928 1620h52v-57h-52v57zM1054 1402q43 -11 43 -49v-4q0 -17 -32 -60h-28q0 25 31 57v7q0 12 -7 15h-12q-10 -4 -10 -19h-28v6q0 32 33 44zM3349 1339q92 0 138 -99h-60q-37 42 -80 42
q-55 0 -87 -68q-10 -22 -10 -47q0 -78 81 -110l18 -1q36 0 75 39h61q-44 -97 -138 -97q-93 0 -141 112q-10 31 -10 62q0 97 90 152q29 15 63 15zM3664 1339q57 0 103 -47q46 -51 46 -115v-20q0 -89 -91 -146q-33 -13 -63 -13q-89 0 -138 101q-13 33 -13 60v18q0 98 98 151
q29 11 58 11zM2261 1337h2l47 -11h3q11 0 26 11l18 -36q-18 -19 -35 -19h-3l-54 10l-20 -7l-20 36q18 16 36 16zM716 1334h19q118 0 129 -26q25 -26 25 -62q-10 -57 -30 -57v-6q47 -23 47 -66v-18q0 -63 -69 -88l-54 -5h-67v328zM2550 1334h53v-217q6 -61 45 -61q29 0 44 39
l3 30v203l4 6h45l5 -6v-171q0 -118 -40 -133q-24 -26 -64 -26q-55 0 -91 76l-4 54v206zM2805 1334h59q4 0 122 -237h4v237h50l4 -6v-322h-58q-29 48 -125 238h-3v-238h-53v328zM3101 1334h54v-328h-54v328zM3859 1334h8q155 0 174 -40q23 -11 47 -75l4 -36v-11l3 -2
q0 -94 -82 -149q-35 -15 -99 -15h-55v328zM4141 1334h153v-60h-103v-75h101v-57h-101v-74l4 -5h99v-57h-157v322zM3563 1175v-10q0 -76 79 -108l19 -1q68 0 96 86l3 20v15q0 61 -60 94q-12 8 -39 11q-66 0 -96 -83zM770 1274v-67h9q54 0 54 28l3 14q-11 25 -29 25h-37z
M3912 1274v-206l2 -3v-2q104 0 122 76l2 15v29q0 34 -32 68q-25 23 -78 23h-16zM1041 1259h5q38 0 71 -40v32h49v-245h-49v32q-36 -40 -80 -40q-75 0 -101 97l-5 36q0 89 85 125zM1314 1259h3q74 0 83 -102v-151h-51v128q0 67 -42 67h-10q-34 0 -39 -62v-133h-52v245h47v-21
q28 29 61 29zM1543 1259h5q45 0 71 -40v32h47v-219q0 -95 -104 -126h-16q-74 0 -108 82h59q26 -25 44 -25h14q52 0 64 77q-33 -42 -76 -42q-60 0 -101 81l-7 44v16q0 79 85 117zM1912 1259h2q43 0 61 -37h2q32 37 69 37h4q57 0 79 -55q8 -25 8 -45v-153h-52v138q0 44 -23 55
l-12 2h-15q-32 0 -36 -65v-130h-52v136q0 59 -43 59h-8q-32 0 -36 -57v-138h-54v245h50v-21h2q6 24 54 29zM2282 1259q47 0 75 -42v34h47v-245h-47v32q-36 -40 -78 -40q-74 0 -102 92l-6 41q0 90 85 125zM985 1117q0 -48 61 -61h4q45 0 62 46l3 15v22q-12 62 -57 62h-14
q-41 0 -59 -57v-27zM1487 1128q0 -48 43 -68l18 -4h5q47 0 63 57v23q-11 65 -58 65h-12q-50 0 -59 -73zM2225 1131v-14q15 -61 57 -61h14q58 12 58 64v11q0 45 -37 65l-18 5h-10q-64 -8 -64 -70zM770 1150v-82q0 -5 7 -5q77 0 77 45q0 34 -47 42h-37zM2966 753l24 -28
l-51 -55q-18 12 -27 26zM1524 727l85 -54q0 -15 -21 -42l-87 54q18 41 23 42zM2850 693h38l55 -60h-54l-21 26l-23 -26h-54q54 60 59 60zM3422 693h40l56 -60h-54l-24 26h-1q0 -5 -19 -26h-54zM622 685h52q8 -4 47 -137l34 -110q9 8 34 100l48 147h54v-2l-112 -326h-44z
M1159 685h51v-54h-51v54zM1354 685h46l6 -5v-323h-52v328zM2317 685h45l4 -5v-78h31v-52h-31v-193h-53v193h-26v52h26v78zM2425 685h52v-98h2q23 23 54 23h3q57 0 81 -71l3 -38v-144h-52v115q0 81 -39 81h-10q-42 0 -42 -87v-109h-52v328zM2664 685h52v-54h-52v54zM3028 685
h44l6 -5v-78h29v-52h-29v-193h-54v193h-27v52h27v78zM3234 685h52v-328h-52v328zM3957 685h52v-328h-52v328zM4316 685h51v-54h-51v54zM1555 610h5q83 0 110 -102l3 -23v-11q0 -83 -85 -120l-35 -5q-76 0 -111 97l-4 32q0 97 93 130zM1811 610h4q53 0 78 -60q7 -25 7 -81
v-112h-54v146q-7 50 -37 50h-10q-38 0 -42 -57v-139h-54v245h49v-21q26 29 59 29zM2046 610h4q45 0 63 -39h3v31h49v-206q0 -102 -89 -135l-28 -3h-5q-73 0 -106 81h52l37 -20l15 -3h14q50 0 61 72q-33 -39 -73 -39q-62 0 -98 76q-11 23 -12 60q0 85 86 123zM2866 610h2
q82 0 111 -104l2 -25l-2 -27h-172q15 -45 45 -45l14 -3q29 0 49 22h57v-3q-35 -76 -108 -76q-77 0 -111 97l-1 28v8q0 49 32 89q34 39 82 39zM3429 610h5q41 0 70 -39h2v31h47v-245h-47v31h-2q-35 -39 -77 -39q-71 0 -101 89l-5 36v14q0 86 84 120zM3711 610h7
q88 0 107 -128l-2 -1v-15q0 -65 -66 -106q-21 -11 -46 -11q-34 0 -64 32v-99l-5 -5h-49v325h49v-28q31 36 69 36zM4151 610q44 0 75 -39v31h49v-245h-49v31q-35 -39 -77 -39q-92 0 -108 132q0 84 73 121q15 8 37 8zM922 602h50v-136q3 -60 42 -60h5q44 0 44 87v109h52v-245
h-47v24h-5q0 -23 -56 -32h-3q-55 0 -82 68q-4 35 -4 99v81zM1159 602h51v-245h-51v245zM2664 602h52v-245h-52v245zM4316 602h51v-245h-51v245zM1492 488v-16q13 -66 59 -66h4q59 0 66 76q-13 71 -59 71h-11q-59 -16 -59 -65zM1987 472q15 -66 59 -66h11q48 0 59 75v1
q-13 71 -59 71h-14q-39 0 -56 -57v-24zM2805 506h122v2q-16 45 -59 45h-7q-35 0 -56 -47zM3373 474q13 -68 61 -68h5q52 0 65 63v12q-10 72 -57 72h-16q-56 -14 -56 -63zM3642 478q12 -72 61 -72h3q50 0 65 60v22q0 43 -49 65h-22q-47 0 -58 -72v-3zM4095 472q10 -66 66 -66
q43 0 61 48l2 15v16q0 54 -52 68h-18q-42 0 -59 -60v-21zM3416 321h51v-52h-51v52zM4137 321h51v-52h-51v52zM2733 133h4q35 0 43 -50v-2q0 -16 -24 -41l-10 -17h-28q0 25 28 56l3 2v2q-3 19 -9 19h-10q-8 0 -9 -19h-30q6 50 42 50zM1546 116l52 -60l-26 -19l-52 52zM352 79
h4q75 -48 85 -60l-20 -37q-88 49 -88 58zM3490 79l86 -58l-18 -39q-10 0 -91 55q15 36 23 42zM4578 76l19 -42l-91 -52l-20 39l92 58v-3zM1204 53h51v-19l5 -5h14v-36h-14l-5 -5v-279h-46v31q-34 -40 -81 -40q-72 0 -102 105l-3 26q0 102 101 131h14q33 0 66 -33v59l-6 5
h-43v36h49v24zM1480 45h40l56 -61h-53l-23 27l-23 -27h-53zM2641 45h33q12 0 63 -61h-54l-23 27q-19 -21 -19 -27h-58v4zM49 37h160v-60h-56v-268h-50l-4 5v245l2 3v2l-2 2l2 3l-2 2l2 3l-2 3h-54v54zM699 37h47v-73l2 -2l-2 -3v-3l2 -2l-2 -3v-3l2 -2v-2l-2 -3l2 -3h3
q17 24 51 24h3q53 0 77 -58q7 -17 7 -42v-153h-52v127q0 68 -40 68h-8q-43 0 -43 -86v-109h-52v322zM1297 37h47l5 -6v-49h-52v55zM1987 37h52v-198l70 115h62l-78 -118l90 -125v-2h-70q-10 22 -74 115v-115h-52v328zM2271 37v-99q24 24 53 24q57 0 80 -56q10 -19 10 -77
v-120h-54v133q0 62 -41 62h-11q-31 0 -37 -55v-140h-53v314l-1 3v3l1 2l-1 3l1 3h53zM2458 37h51v-55h-51v55zM3148 37h51v-108q27 33 68 33h3q75 0 105 -94l5 -37q0 -75 -64 -120q-30 -11 -49 -11q-41 0 -72 40v-31h-47v328zM4275 37h52v-99h2q23 24 54 24h3q60 0 82 -74
l2 -41v-138h-52v111q0 82 -32 82l-10 2h-12q-37 0 -37 -80v-115h-52v328zM329 -38h3v-58h-5q-42 0 -42 -57v-138h-53v245h47v-21q18 29 50 29zM564 -38q71 0 86 -87v-166h-51v136q-6 59 -41 59h-6q-45 0 -45 -84v-111h-52v245h50v-21q25 29 59 29zM1504 -38q72 0 105 -94
l5 -39q-2 -24 -7 -24h-169q17 -47 62 -47q24 0 48 21h57q-33 -79 -108 -79q-82 0 -113 105v37q0 81 89 117zM2657 -38h5q77 0 107 -97l3 -26v-21l-3 -13h-170q18 -47 53 -47h12q21 0 42 21h59q-34 -79 -105 -79q-84 0 -115 102l-2 29q0 93 91 128zM2915 -38h4q54 0 78 -60
q7 -25 7 -82v-111h-54v138q0 48 -35 57h-11q-38 0 -43 -57v-138h-54v245h50v-21q25 29 58 29zM3508 -38h6q40 0 70 -40h2v32h47v-245h-47v31h-2q-34 -40 -78 -40q-71 0 -101 90l-4 37v12q0 82 77 117q11 6 30 6zM3781 -38h4q62 0 82 -78l3 -84v-91h-54v138q0 48 -38 57h-9
q-38 0 -42 -52v-143h-54v245h49v-21q26 29 59 29zM4133 -38h1q74 0 104 -93l4 -40q0 -88 -84 -126l-25 -3q-41 0 -68 34v-106h-52v326h47v-29q30 37 73 37zM4714 -38h5q34 0 63 -37q27 37 69 37h6q56 0 79 -66l6 -51v-136h-52v122q0 73 -39 73h-7q-35 0 -41 -50v-140l-5 -5
h-48v140q0 42 -31 55h-17q-40 0 -40 -77v-118h-51v245h47v-21q22 29 56 29zM359 -46h49l5 -6v-234l-5 -5h-49v245zM1297 -46h52v-245h-52v245zM1649 -46h52v-136q4 -60 43 -60h4q44 0 44 81v115h52v-245h-47v24h-5q-12 -33 -59 -33q-52 0 -79 63q-5 12 -5 34v157zM2458 -46
h51v-245h-51v245zM4515 -46h51v-245h-51v245zM1077 -169q0 -53 51 -73h12q54 0 66 66v10q0 53 -54 70h-17q-38 0 -58 -57v-16zM1438 -143h122q-18 47 -53 47h-7q-43 0 -62 -44v-3zM2599 -143h122q-21 47 -54 47h-7q-46 0 -61 -47zM3196 -158v-11q10 -73 61 -73h5q64 8 64 71
v5q0 45 -38 65l-18 5h-14q-60 -14 -60 -62zM3452 -173q14 -69 62 -69h11q41 0 59 60v13q-8 73 -56 73h-17q-47 0 -59 -73v-4zM4062 -158v-22q0 -47 59 -62h9q50 0 61 76q-13 70 -58 70h-15q-56 -17 -56 -62z" />
    <glyph glyph-name=".null" horiz-adv-x="0" 
 />
    <glyph glyph-name="nonmarkingreturn" horiz-adv-x="571" 
 />
    <glyph glyph-name="space" unicode=" " horiz-adv-x="446" 
 />
    <glyph glyph-name="exclam" unicode="!" horiz-adv-x="280" 
d="M61 1149l55 -920h74l14 996zM71 59l82 91l82 -91l-82 -92z" />
    <glyph glyph-name="quotedbl" unicode="&#x22;" horiz-adv-x="440" 
d="M8 1143l133 39q11 2 15 -2q2 -4 0 -13l-64 -340q-2 -10 -10 -14l-16 -8q-9 -2 -11 6l-55 313q-2 15 8 19zM186 1147l134 37q12 4 14 -2q2 -4 0 -13l-64 -340q-2 -8 -10 -12l-16 -8q-8 -4 -10 6l-56 311q-2 17 8 21z" />
    <glyph glyph-name="numbersign" unicode="#" horiz-adv-x="610" 
d="M258 813l-23 -131h115l21 131h-113zM293 1042l-25 -163h113l24 163h66l-25 -163h160l-10 -66h-160l-20 -131h159l-10 -66h-160l-24 -153h-66l25 153h-115l-22 -153h-66l25 153h-158l10 66h158l20 131h-155l8 66h158l24 163h66z" />
    <glyph glyph-name="dollar" unicode="$" horiz-adv-x="790" 
d="M328 31q100 -4 178 52t69 138q-6 72 -71 139q-43 46 -148 119zM342 1036q-68 -16 -110 -64t-46 -102q-4 -63 33 -110q27 -35 98 -84zM274 39l33 475q-112 80 -162 137q-69 84 -65 176q4 101 84 175.5t182 84.5l2 41l49 5l-2 -43q94 -5 189 -54v-104q-54 115 -174 115
q-9 0 -19 -3l-24 -401q61 -43 104 -80q215 -180 215 -311q0 -19 -4 -37q-39 -215 -356 -215l-7 -96l-55 -4l8 100l-30 2q-101 4 -242 154l51 71q105 -92 223 -188z" />
    <glyph glyph-name="percent" unicode="%" horiz-adv-x="1667" 
d="M1561 332q0 -137 -101.5 -234.5t-247.5 -97.5q-143 0 -246.5 97.5t-103.5 234.5t103.5 234.5t246.5 97.5q146 0 247.5 -97.5t101.5 -234.5zM1118 1147l-626 -1188l-43 2l624 1184zM698 786q0 -137 -102 -234t-246 -97q-143 0 -246.5 97t-103.5 234q0 138 103.5 235
t246.5 97q144 0 246 -97t102 -235zM1485 326q0 139 -69.5 223t-203.5 88q-125 2 -199.5 -86t-74.5 -217q0 -127 81 -217t193 -88q109 0 191 88t82 209zM623 780q0 140 -70 223.5t-205 88.5q-123 2 -197.5 -86t-74.5 -218q0 -126 80 -216.5t192 -88.5q111 0 193 88t82 209z
" />
    <glyph glyph-name="ampersand" unicode="&#x26;" horiz-adv-x="1646" 
d="M1540 0h-323l-213 141q-234 -157 -422 -159q-248 -2 -417 144t-165 361q4 285 270 422q-10 41 -10 88q0 236 264 283q21 4 41 4q76 0 162 -45q68 -37 111 -82l-37 -82q-92 158 -236 158q-24 0 -47 -6q-139 -39 -139 -193q0 -20 2 -39q33 -88 109 -190q186 -244 567 -508
q61 80 61 250q0 61 -10 133h-289l25 59h663l-30 -57h-291q6 -37 6 -86q0 -178 -88 -332l334 -223zM954 178q-442 303 -665 676q-184 -123 -184 -303q0 -156 143 -293q182 -172 399 -172q166 0 307 92z" />
    <glyph glyph-name="quotesingle" unicode="'" horiz-adv-x="307" 
d="M68 1067l-68 74l100 112l103 -112l-152 -168l-24 24l41 45q6 11 0 25z" />
    <glyph glyph-name="parenleft" unicode="(" horiz-adv-x="497" 
d="M184 1366q-84 -131 -135 -344q-43 -191 -43 -367q0 -391 188 -778q-77 301 -77 758q0 373 67 731z" />
    <glyph glyph-name="parenright" unicode=")" horiz-adv-x="497" 
d="M317 1366q84 -131 135 -344q43 -191 43 -367q0 -391 -188 -778q78 301 78 758q0 373 -68 731z" />
    <glyph glyph-name="asterisk" unicode="*" horiz-adv-x="421" 
d="M59 1235q6 2 10 0l105 -115l-17 140q0 6 6 6h50q6 0 4 -6l-17 -138l105 113q4 4 8 0l35 -29q6 -4 0 -8l-140 -100l138 -99q6 -4 0 -8l-33 -30q-4 -3 -10 0l-103 112l17 -153q2 -7 -7 -7h-47q-8 0 -6 7l19 153l-103 -112q-4 -3 -8 0l-35 30q-6 4 0 8l135 99l-139 98
q-6 4 0 6z" />
    <glyph glyph-name="plus" unicode="+" horiz-adv-x="632" 
d="M487 518v60h-203v231h-59v-231h-205v-60h205v-215h59v215h203z" />
    <glyph glyph-name="comma" unicode="," horiz-adv-x="307" 
d="M68 -59l-68 73l100 113l103 -113l-152 -168l-24 25l41 45q6 10 0 25z" />
    <glyph glyph-name="hyphen" unicode="-" horiz-adv-x="630" 
d="M539 471v92h-539v-92h539z" />
    <glyph glyph-name="hyphen" unicode="&#x2010;" horiz-adv-x="630" 
d="M539 471v92h-539v-92h539z" />
    <glyph glyph-name="period" unicode="." horiz-adv-x="307" 
d="M0 14l100 113l103 -113l-103 -112z" />
    <glyph glyph-name="slash" unicode="/" horiz-adv-x="509" 
d="M-30 -211l514 1657h66l-506 -1657h-74z" />
    <glyph glyph-name="zero" unicode="0" horiz-adv-x="851" 
d="M748 530q0 -229 -110 -392t-265 -163q-154 0 -263.5 163t-109.5 392q0 230 109.5 392.5t263.5 162.5q155 0 265 -162.5t110 -392.5zM621 530q2 201 -72 347.5t-176 146.5q-103 0 -174.5 -144.5t-71.5 -349.5q0 -204 71.5 -348.5t174.5 -144.5q102 0 172.5 144.5
t75.5 348.5z" />
    <glyph glyph-name="one" unicode="1" horiz-adv-x="270" 
d="M154 18q0 -10 12 -18h-164q12 8 12 18v945q-2 4 -14 8l154 102v-1055z" />
    <glyph glyph-name="two" unicode="2" horiz-adv-x="839" 
d="M594 729q8 125 -51.5 205t-173.5 80q-105 0 -183 -94q-69 -86 -65 -164q8 -150 110 -224q7 -4 21 -6l-113 -118q0 6 -6 20q-43 57 -84 113q-51 86 -41 202q13 138 117 235t244 91q176 -8 272 -102.5t92 -243.5q-2 -107 -61 -195q-35 -55 -133 -147q-82 -66 -287 -240h463
q10 0 18 11l-59 -164q-8 12 -21 12h-653q55 51 266 223q135 113 211 205q105 125 117 301z" />
    <glyph glyph-name="three" unicode="3" horiz-adv-x="774" 
d="M47 231q41 -172 254 -178q76 -2 152 56q90 69 92 184q4 160 -160 203h-221q-12 0 -21 -13v164q9 -10 21 -10h211q108 51 108 174q0 29 -4 55q-39 158 -184 164q-88 4 -146.5 -57.5t-54.5 -147.5h-53q27 236 268 254q88 8 162 -26q109 -52 133 -176q4 -23 4 -43
q0 -136 -151 -220q200 -73 213 -305q6 -123 -95 -217q-102 -100 -251 -100q-228 0 -324 221z" />
    <glyph glyph-name="four" unicode="4" horiz-adv-x="829" 
d="M705 424q12 0 18 12v-164q-6 13 -18 13h-97v-267q0 -10 10 -18h-161q10 8 10 18v267h-467v69l547 719h71q-10 -8 -10 -18v-631h97zM131 424h336v444z" />
    <glyph glyph-name="five" unicode="5" horiz-adv-x="819" 
d="M43 258q8 -90 81 -153.5t171 -63.5q123 0 209 86t86 207q0 123 -92 211q-105 100 -279 100q-35 0 -72 -4l58 432h485q12 0 21 12v-163q-9 10 -21 10h-442l-23 -162q230 -4 365 -121q123 -110 123 -278q0 -158 -108.5 -270.5t-264.5 -112.5q-279 0 -340 252z" />
    <glyph glyph-name="six" unicode="6" horiz-adv-x="841" 
d="M545 1171h84q-94 -88 -174 -174q-189 -202 -271 -350q-86 -153 -86 -239q0 -31 6 -64q43 -223 271 -276q26 -7 53 -7q86 0 141 62q60 70 62 190q2 166 -142 260q-120 78 -264 74l94 123q199 -35 308 -137q112 -109 110 -268q-4 -164 -126 -276t-265 -101q-145 8 -242 102
q-104 98 -104 250q0 141 125 334q123 186 420 497z" />
    <glyph glyph-name="seven" unicode="7" horiz-adv-x="864" 
d="M154 -18h-101q17 2 39 30l510 920h-582q-12 0 -20 -10l68 161q8 -10 20 -10h672z" />
    <glyph glyph-name="eight" unicode="8" horiz-adv-x="792" 
d="M344 -14q-143 0 -235 70.5t-107 195.5q-10 80 29 154q61 112 219 178q-176 114 -170 274q4 72 70 137q78 78 194 86q113 6 200 -59.5t87 -157.5q2 -80 -51 -135q-35 -37 -150 -108q258 -164 258 -334q0 -137 -106 -224q-98 -77 -238 -77zM535 874q0 56 -47 105
q-56 57 -136 53q-81 -4 -130.5 -48t-43.5 -101q9 -101 217 -240q140 84 140 231zM582 274q-15 111 -295 285q-195 -88 -184 -264q12 -240 249 -258q95 -8 163.5 51t68.5 156q0 14 -2 30z" />
    <glyph glyph-name="nine" unicode="9" horiz-adv-x="806" 
d="M201 -39h-109q97 68 176 137q191 168 275 318q65 116 65 221q0 141 -88 247.5t-227 106.5q-86 0 -147 -51q-70 -61 -72 -174q-2 -131 112 -217q107 -82 259 -82q45 0 90 8l-74 -139q-223 6 -346 121q-119 108 -115 278q4 160 117 262q104 97 237 86q152 -10 250.5 -108
t98.5 -244q0 -164 -117 -342q-123 -186 -385 -428z" />
    <glyph glyph-name="colon" unicode=":" horiz-adv-x="309" 
d="M0 82l100 113l103 -113l-103 -113zM2 592l100 113l101 -113l-101 -111z" />
    <glyph glyph-name="semicolon" unicode=";" horiz-adv-x="307" 
d="M0 535l100 112l103 -112l-103 -113zM68 -61l-68 73l100 111l103 -111l-152 -168l-24 25l41 43q6 12 0 27z" />
    <glyph glyph-name="less" unicode="&#x3c;" horiz-adv-x="425" 
d="M319 344v-90l-319 319l319 320v-88l-229 -230z" />
    <glyph glyph-name="equal" unicode="=" horiz-adv-x="528" 
d="M442 379h-442v90h442v-90zM442 543h-442v90h442v-90z" />
    <glyph glyph-name="greater" unicode="&#x3e;" horiz-adv-x="425" 
d="M0 795v88l319 -320l-319 -319v88l231 229z" />
    <glyph glyph-name="question" unicode="?" horiz-adv-x="817" 
d="M277 59l82 93l82 -93l-82 -90zM574 918q6 98 -58 186q-69 94 -168 92q-92 -2 -154.5 -64.5t-62.5 -156.5q0 -23 4 -47q2 -13 23 -27l-158 -72q6 9 4 29q-14 174 95 285q102 102 258 102q147 0 250.5 -100.5t103.5 -243.5q0 -119 -115 -233q-96 -99 -205 -136v-301h-59
v314q123 84 162 133q69 88 80 240z" />
    <glyph glyph-name="at" unicode="@" horiz-adv-x="1435" 
d="M811 434q-92 -170 -242 -170q-104 0 -161 84q-52 74 -52 180q0 150 116 288t261 138q140 0 172 -155l43 141h105l-133 -473q-15 -47 -15 -80q0 -90 78 -90q33 0 86 27q117 55 182 188q60 119 60 260q0 236 -160 371q-151 125 -389 125q-305 0 -493.5 -200t-188.5 -505
q0 -344 289 -493q162 -84 352 -84q264 0 481 159l25 -24q-234 -172 -512 -172q-397 0 -598 260q-123 162 -123 379q0 305 229 512q220 200 527 200q260 0 422 -135q174 -143 174 -399t-172 -414q-99 -88 -203 -88q-152 0 -160 170zM735 924q-120 0 -215 -217
q-61 -144 -61 -244q0 -162 121 -162q123 0 213 168q80 149 80 285q0 65 -37 117.5t-101 52.5z" />
    <glyph glyph-name="A" unicode="A" horiz-adv-x="1259" 
d="M303 463l-178 -406q-6 -12 -6 -22q0 -23 24 -35h-143q16 6 29 14q32 21 43 47l432 986l-41 92l92 149l545 -1233q10 -22 53 -55h-217q14 33 4 55l-180 408h-457zM737 518l-207 469l-204 -469h411z" />
    <glyph glyph-name="B" unicode="B" horiz-adv-x="866" 
d="M186 1198v-508h95q81 0 157 66q23 18 42.5 79.5t19.5 129.5q0 137 -88 202q-39 31 -119 31h-107zM186 625v-568h189q94 0 170 79t78 194q2 119 -74 207t-180 88h-183zM0 0q29 33 29 55v1147q0 23 -29 55h330q139 0 223 -71q96 -82 98 -236q2 -192 -209 -274
q90 -14 158 -51q158 -86 160 -271q2 -147 -80 -239q-102 -115 -318 -115h-362z" />
    <glyph glyph-name="C" unicode="C" horiz-adv-x="1273" 
d="M684 -20q-280 0 -478 188t-206 459q-6 272 180 458q193 195 492 195q219 0 358 -49l88 -14l2 -123q-127 129 -368 129q-252 0 -430 -173t-178 -415t178 -412t430 -170q274 0 416 119l-35 -131q-242 -61 -449 -61z" />
    <glyph glyph-name="D" unicode="D" horiz-adv-x="1341" 
d="M565 55q174 0 336 148q189 170 191 430q4 246 -177 416q-161 151 -352 151h-373l-2 -1145h377zM0 0q29 33 29 55v1145q0 23 -29 57h565q271 0 465 -174q199 -180 207 -444q6 -262 -192.5 -450.5t-471.5 -188.5h-573z" />
    <glyph glyph-name="E" unicode="E" horiz-adv-x="720" 
d="M188 1200v-563h340q37 0 52 45v-147q-27 45 -52 45h-340v-525h349q38 0 79 47l-28 -102h-588q29 33 29 55v1145q0 23 -29 57h580v-102q-27 45 -52 45h-340z" />
    <glyph glyph-name="F" unicode="F" horiz-adv-x="686" 
d="M188 580v-525q0 -24 29 -55h-217q29 31 29 55v1145q0 25 -29 57l580 -2v-100q-9 45 -52 45h-340v-563h340q39 0 52 45v-147q-9 45 -52 45h-340z" />
    <glyph glyph-name="G" unicode="G" horiz-adv-x="1265" 
d="M1133 555v-498q-295 -80 -447 -80q-282 0 -480 186.5t-206 454.5q-6 273 180 463q193 199 492 199q219 0 358 -49l88 -14l2 -123q-71 73 -170 100q-69 20 -198 23q-277 6 -447 -173q-161 -165 -161 -417q0 -240 178 -411t430 -171q127 0 219 31v479q0 23 -27 57h215
q-26 -34 -26 -57z" />
    <glyph glyph-name="H" unicode="H" horiz-adv-x="1298" 
d="M1165 1200v-1145q0 -22 27 -55h-215q27 33 27 55v609h-816v-609q0 -22 29 -55h-217q29 33 29 55v1145q0 23 -29 57h217q-29 -34 -29 -57v-481h816v481q0 23 -27 57h215q-27 -34 -27 -57z" />
    <glyph glyph-name="I" unicode="I" horiz-adv-x="321" 
d="M188 1200v-1145q0 -22 29 -55h-217q29 33 29 55v1145q0 23 -29 57h217q-29 -34 -29 -57z" />
    <glyph glyph-name="J" unicode="J" horiz-adv-x="567" 
d="M27 137q-4 17 -27 39h98q-20 -14 -14 -39q20 -86 92 -92q98 -10 98 92v1063q0 23 -28 57h217q-29 -34 -29 -57v-1026q0 -82 -55 -138t-141 -56q-166 0 -211 157z" />
    <glyph glyph-name="K" unicode="K" horiz-adv-x="1124" 
d="M188 602v-547q0 -22 29 -55h-217q29 33 29 55v1145q0 23 -29 57h217q-29 -34 -29 -57v-543l514 529q21 22 7 71h180q-31 -16 -82 -57l-492 -502l623 -643q23 -22 82 -55h-299q14 35 -6 57z" />
    <glyph glyph-name="L" unicode="L" horiz-adv-x="759" 
d="M655 102l-28 -102h-627q29 31 29 55v1145q0 25 -29 57h217q-29 -32 -29 -57v-1145h387q43 0 80 47z" />
    <glyph glyph-name="M" unicode="M" horiz-adv-x="1583" 
d="M678 -23l-477 1065l-99 -987q-4 -37 41 -55h-143q12 6 20 14q23 21 25 47l113 1104q2 23 -19.5 51.5t-46.5 40.5h203q-12 -34 -2 -57l434 -967l432 971q2 23 -35 53h224q-23 -34 -21 -57l115 -1145q2 -22 35 -55h-224q29 31 27 53l-102 1039z" />
    <glyph glyph-name="N" unicode="N" horiz-adv-x="1363" 
d="M1212 -23l-1093 1135v-1057q0 -39 41 -55h-142q48 18 48 61v1104q-23 58 -66 92h254q-8 -16 -8 -34q0 -13 4 -23l907 -936v938q0 39 -43 55h143q-45 -18 -45 -61v-1219z" />
    <glyph glyph-name="O" unicode="O" horiz-adv-x="1474" 
d="M1370 629q0 -269 -199.5 -460.5t-482.5 -191.5q-285 0 -486.5 191.5t-201.5 460.5q0 270 201.5 460.5t486.5 190.5q283 0 482.5 -190.5t199.5 -460.5zM1221 616q0 273 -134 433q-139 172 -403 176q-242 6 -393 -170q-141 -168 -141 -424q0 -246 156.5 -423t377.5 -175
q217 2 377 174t160 409z" />
    <glyph glyph-name="P" unicode="P" horiz-adv-x="874" 
d="M188 55q0 -22 29 -55h-217q29 33 29 55v1147q0 23 -29 55h408q118 0 219 -71q127 -92 141 -268q10 -156 -91.5 -273t-246.5 -117q-59 0 -117 23q84 16 146 55q147 94 153 285q4 149 -88 239q-78 78 -178 78h-158v-1153z" />
    <glyph glyph-name="Q" unicode="Q" horiz-adv-x="1523" 
d="M1419 -55q-57 -29 -131 -29q-151 0 -291 133q-143 -72 -309 -72q-282 0 -485 191.5t-203 460.5q0 270 203 460.5t485 190.5q283 0 482.5 -190.5t199.5 -460.5q0 -301 -240 -496q189 -184 289 -188zM1221 616q0 273 -131 433q-142 172 -406 176q-242 6 -391 -170
q-143 -168 -143 -424q0 -246 157.5 -423t376.5 -175q217 2 377 174t160 409z" />
    <glyph glyph-name="R" unicode="R" horiz-adv-x="1048" 
d="M1106 4q-49 -20 -113 -20q-155 0 -297 125q-51 41 -110 100q-142 143 -295 356h-101v-510q0 -22 27 -55h-217q29 33 29 55v1147q0 23 -29 55h279q174 0 299 -90q135 -96 133 -245q-2 -78 -47 -156q-64 -111 -193 -162q94 -174 350 -424q178 -174 285 -176zM553 918
q-4 98 -78 184q-84 94 -207 94h-78v-571l84 2q97 0 185 75q98 89 94 216z" />
    <glyph glyph-name="S" unicode="S" horiz-adv-x="770" 
d="M352 -23q-82 0 -164 21q-36 14 -110 37q-25 2 -74 10l-4 182q45 -86 128 -138t173 -52q94 0 157.5 59.5t63.5 153.5q0 119 -149 270q-107 105 -213 209q-117 133 -117 260t92 208t217 81q29 0 76 -8q57 -8 76 -8q33 -5 92 0v-164q-55 123 -213 123q-215 0 -215 -193
q0 -82 53 -151q31 -39 117 -113q39 -33 119 -102q207 -191 207 -392q0 -141 -86 -217t-226 -76z" />
    <glyph glyph-name="T" unicode="T" horiz-adv-x="1265" 
d="M659 1202v-1147q0 -22 29 -55h-217q29 33 29 55v1147h-449q-43 0 -51 -47v102h1159v-102q-26 47 -51 47h-449z" />
    <glyph glyph-name="U" unicode="U" horiz-adv-x="1245" 
d="M1112 1202v-1147q0 -22 27 -55h-215q26 33 26 55v103q-151 -181 -420 -181q-186 0 -337 123q-164 131 -164 314v788q0 23 -29 55h217q-29 -32 -29 -55v-788q0 -111 117 -224q101 -96 174 -108q49 -10 101 -10q143 0 270 73q100 58 100 84v973q0 23 -26 55h215
q-27 -32 -27 -55z" />
    <glyph glyph-name="V" unicode="V" horiz-adv-x="1380" 
d="M631 -10l-582 1210q-14 29 -49 57h219q-10 -20 -10 -40q0 -11 2 -17l483 -973l516 975q7 10 7 19q0 24 -27 36h141q-47 -20 -67 -61z" />
    <glyph glyph-name="W" unicode="W" horiz-adv-x="1873" 
d="M1174 -10l-261 538l-282 -538l-582 1210q-8 25 -49 57h219q-16 -32 -8 -57l483 -973l191 361l-293 612q-10 25 -49 57h219q-17 -32 -8 -57l221 -444l235 446q7 10 7 21q0 22 -27 34h141q-22 -10 -67 -61l-260 -498l233 -471l516 975q6 10 6 19q0 24 -28 36h143
q-23 -10 -68 -61z" />
    <glyph glyph-name="X" unicode="X" horiz-adv-x="1095" 
d="M311 1202l236 -432l280 432q11 15 11 29q0 16 -19 26h144q-17 -6 -33 -14q-35 -20 -51 -47l-308 -473l361 -668q12 -22 59 -55h-217q10 33 -2 55l-289 533l-346 -533q-12 -14 -12 -28q0 -17 18 -27h-143q16 6 31 14q37 21 53 47l375 574l-307 567q-13 23 -60 55h217
q-10 -32 2 -55z" />
    <glyph glyph-name="Y" unicode="Y" horiz-adv-x="1114" 
d="M424 55v551l-363 596q-12 23 -61 55h229q-8 -32 7 -55l321 -528l317 526q11 14 11 27q0 20 -19 30h144q-17 -6 -31 -14q-35 -20 -53 -49l-340 -565v-574q0 -22 26 -55h-215q27 33 27 55z" />
    <glyph glyph-name="Z" unicode="Z" horiz-adv-x="1191" 
d="M1059 0h-1059l823 1200h-729q-43 0 -53 -45v102h979l-823 -1200h811q39 0 79 45z" />
    <glyph glyph-name="bracketleft" unicode="[" horiz-adv-x="555" 
d="M379 -158v64h-244v1425h244v64h-379v-1553h379z" />
    <glyph glyph-name="backslash" unicode="\" horiz-adv-x="509" 
d="M550 -211l-512 1657h-78l508 -1657h82z" />
    <glyph glyph-name="bracketright" unicode="]" horiz-adv-x="579" 
d="M198 1399v-64h242v-1425h-242v-64h379v1553h-379z" />
    <glyph glyph-name="asciicircum" unicode="^" horiz-adv-x="745" 
d="M53 932l266 192l271 -192h49l-322 319l-317 -319h53z" />
    <glyph glyph-name="underscore" unicode="_" horiz-adv-x="1024" 
 />
    <glyph glyph-name="grave" unicode="`" horiz-adv-x="380" 
d="M262 1325l-39 -45l-223 188l80 80z" />
    <glyph glyph-name="a" unicode="a" horiz-adv-x="1103" 
d="M266 408l-155 -357q-5 -10 -5 -20q0 -21 19 -31h-125q14 6 25 12q28 19 38 43l381 869l-36 80l81 133l482 -1088q8 -20 47 -49h-193q13 29 4 49l-159 359h-404zM649 457l-182 413l-180 -413h362z" />
    <glyph glyph-name="b" unicode="b" horiz-adv-x="755" 
d="M164 1057v-449h84q71 0 139 58q53 47 53 184q0 123 -75 180q-37 27 -107 27h-94zM164 551v-502h168q82 0 149.5 70.5t67.5 171.5q2 104 -64.5 182t-158.5 78h-162zM0 0q25 29 25 49v1010q0 20 -25 49h291q123 0 196 -64q86 -71 88 -206q0 -168 -186 -242q82 -12 139 -45
q140 -76 142 -238q2 -131 -70 -213q-90 -100 -281 -100h-319z" />
    <glyph glyph-name="c" unicode="c" horiz-adv-x="1116" 
d="M604 -18q-250 0 -424 166.5t-180 404.5q-6 240 161 407.5t433 167.5q193 0 315 -43l78 -14v-106q-110 114 -323 114q-221 0 -379 -153.5t-158 -366.5q0 -211 156.5 -361.5t380.5 -150.5q241 0 366 105l-30 -117q-215 -53 -396 -53z" />
    <glyph glyph-name="d" unicode="d" horiz-adv-x="1177" 
d="M498 49q153 0 297 129q166 152 168 379q4 219 -156 369q-141 133 -311 133h-328l-2 -1010h332zM0 0q25 29 25 49v1010q0 20 -25 49h498q239 0 412 -155.5t180 -387.5q6 -233 -169.5 -399t-414.5 -166h-506z" />
    <glyph glyph-name="e" unicode="e" horiz-adv-x="628" 
d="M166 1059v-498h299q33 0 47 41l-2 -131q-21 41 -43 41h-301v-463h307q35 0 70 41l-25 -90h-518q25 29 25 49v1010q0 20 -25 49h512v-88q-16 39 -47 39h-299z" />
    <glyph glyph-name="f" unicode="f" horiz-adv-x="598" 
d="M166 512v-463q0 -22 24 -49h-190q25 29 25 49v1010q0 22 -25 49h512v-88q-8 39 -47 39h-299v-498h299q35 0 47 41v-131q-8 41 -45 41h-301z" />
    <glyph glyph-name="g" unicode="g" horiz-adv-x="1110" 
d="M998 489v-440q-259 -69 -392 -69q-250 0 -425 164.5t-181 402.5q-6 239 158 407q172 174 436 174q193 0 315 -43l78 -12v-108q-61 65 -149 88q-62 18 -174 20q-244 4 -396 -151q-141 -148 -141 -369q0 -213 156.5 -362.5t380.5 -149.5q110 0 192 27v421q0 21 -24 50h190
q-24 -29 -24 -50z" />
    <glyph glyph-name="h" unicode="h" horiz-adv-x="1138" 
d="M1028 1059v-1010q0 -20 25 -49h-191q25 29 25 49v537h-721v-537q0 -20 24 -49h-190q25 29 25 49v1010q0 20 -25 49h190q-24 -29 -24 -49v-424h721v424q0 20 -25 49h191q-25 -29 -25 -49z" />
    <glyph glyph-name="i" unicode="i" horiz-adv-x="276" 
d="M166 1059v-1010q0 -20 24 -49h-190q25 29 25 49v1010q0 20 -25 49h190q-24 -29 -24 -49z" />
    <glyph glyph-name="j" unicode="j" horiz-adv-x="493" 
d="M25 121q-5 14 -25 35h86q-18 -13 -12 -35q18 -76 82 -82q86 -8 86 82v938q0 20 -25 49h191q-25 -29 -25 -49v-905q0 -72 -49 -122t-125 -50q-146 0 -184 139z" />
    <glyph glyph-name="k" unicode="k" horiz-adv-x="985" 
d="M166 532v-483q0 -20 24 -49h-190q25 29 25 49v1010q0 20 -25 49h190q-24 -29 -24 -49v-479l452 467q19 18 7 63l157 -2q-24 -14 -71 -49l-432 -445l548 -565q19 -20 72 -49h-264q14 31 -4 51z" />
    <glyph glyph-name="l" unicode="l" horiz-adv-x="663" 
d="M578 90l-25 -90h-553q25 29 25 49v1010q0 22 -25 49h190q-24 -27 -24 -49v-1010h342q37 0 70 41z" />
    <glyph glyph-name="m" unicode="m" horiz-adv-x="1388" 
d="M598 -20l-420 940l-88 -871q-4 -33 37 -49h-127q10 6 18 12q21 19 23 41l98 975q4 49 -57 80h178q-12 -29 -2 -49l383 -854l383 858q0 20 -33 45h197q-21 -29 -19 -49l103 -1010q2 -20 31 -49h-197q24 27 22 47l-88 916z" />
    <glyph glyph-name="n" unicode="n" horiz-adv-x="1196" 
d="M1069 -18l-965 999v-932q0 -35 37 -49h-125q41 16 41 53v975q-18 51 -57 80h223q-6 -14 -6 -31q0 -10 4 -18l799 -828v830q0 35 -37 47h127q-41 -14 -41 -53v-1073z" />
    <glyph glyph-name="o" unicode="o" horiz-adv-x="1294" 
d="M1208 555q0 -238 -176 -405.5t-426 -167.5t-428 167.5t-178 405.5t178 405.5t428 167.5t426 -167.5t176 -405.5zM1075 545q0 239 -114 381q-125 149 -357 155q-215 4 -346 -151q-127 -148 -127 -373q0 -217 139.5 -373.5t333.5 -154.5q191 2 331 153.5t140 362.5z" />
    <glyph glyph-name="p" unicode="p" horiz-adv-x="763" 
d="M166 49q0 -20 24 -49h-190q25 29 25 49v1010q0 20 -25 49h358q107 0 193 -61q115 -82 125 -236q10 -139 -79 -241.5t-218 -102.5q-51 0 -103 18q76 15 130 50q129 83 135 249q4 134 -78 213q-70 68 -158 68h-139v-1016z" />
    <glyph glyph-name="q" unicode="q" horiz-adv-x="1337" 
d="M1251 -47q-49 -27 -114 -27q-133 0 -256 117q-129 -63 -275 -63q-250 0 -428 168.5t-178 406.5t178 405.5t428 167.5t426 -167.5t176 -405.5q0 -266 -211 -438q166 -162 254 -164zM1077 545q0 239 -116 381q-125 149 -357 155q-215 4 -346 -151q-127 -148 -127 -373
q0 -217 139.5 -373.5t333.5 -154.5q191 2 332 153.5t141 362.5z" />
    <glyph glyph-name="r" unicode="r" horiz-adv-x="1060" 
d="M975 2q-43 -16 -98 -16q-140 0 -263 110q-45 35 -98 88q-123 127 -258 316h-90v-451q0 -20 22 -49h-190q25 29 25 49v1010q0 20 -25 49h246q153 0 264 -78q119 -86 117 -217q-2 -70 -41 -137q-56 -98 -172 -144q84 -153 311 -372q156 -154 250 -158zM487 809
q-2 88 -69 162q-74 84 -182 84h-68v-504h74q86 0 161 70q89 75 84 188z" />
    <glyph glyph-name="s" unicode="s" horiz-adv-x="671" 
d="M154 49q57 -22 110 -22q82 0 138.5 49t62.5 125q8 106 -105 227q-106 104 -213 209q-114 127 -108 250q4 84 63 151q54 60 129 78q37 10 80 10q35 0 83 -7t50 -7q29 -2 82 0v-129q-18 37 -61 64q-55 34 -127 34q-182 -2 -193 -155q-8 -97 66 -174q96 -86 190 -170
q185 -166 185 -344q0 -123 -76 -189.5t-199 -66.5q-69 0 -145 16q-35 14 -98 33q-23 2 -64 8l-4 149q16 -28 39 -53q51 -59 115 -86z" />
    <glyph glyph-name="t" unicode="t" horiz-adv-x="1110" 
d="M582 1059v-1010q0 -20 24 -49h-190q24 29 24 49v1010h-395q-37 0 -45 -39v88h1022v-88q-25 39 -45 39h-395z" />
    <glyph glyph-name="u" unicode="u" 
d="M981 1059v-1010q0 -20 25 -49h-191q25 29 25 49v90q-135 -157 -371 -157q-166 0 -301 106q-143 115 -143 277v694q0 20 -25 49h190q-24 -29 -24 -49v-694q0 -97 104 -197q88 -84 154 -96q43 -9 86 -9q127 0 240 64q90 51 90 74v858q0 20 -25 49h191q-25 -29 -25 -49z" />
    <glyph glyph-name="v" unicode="v" horiz-adv-x="1181" 
d="M555 -8l-512 1069q-12 22 -43 49h193q-11 -18 -11 -37q0 -8 4 -12l424 -860q463 868 463 876q0 23 -24 33h125q-11 0 -32.5 -21.5t-27.5 -31.5z" />
    <glyph glyph-name="w" unicode="w" horiz-adv-x="1714" 
d="M1032 -8l-227 473l-250 -473l-514 1069q-12 22 -43 49h195q-11 -18 -11 -37q0 -8 2 -12l426 -860l168 317l-258 543q-12 22 -43 49h193q-10 -18 -10 -37q0 -8 198 -407q213 403 213 411q0 23 -22 33h125q-41 -18 -60 -53l-231 -443l205 -413q460 866 460 874q0 21 -24 31
h125q-41 -16 -60 -53z" />
    <glyph glyph-name="x" unicode="x" horiz-adv-x="960" 
d="M274 1059l207 -381l248 383q10 12 10 24q0 17 -16 23h125q-25 -6 -74 -53l-270 -416l319 -590q11 -20 51 -49h-190q8 29 -4 49l-254 471l-305 -471q-10 -14 -10 -24q0 -17 14 -25h-125q25 8 74 55l329 504l-270 500q-10 20 -51 49h190q-8 -29 2 -49z" />
    <glyph glyph-name="y" unicode="y" horiz-adv-x="976" 
d="M375 49v486l-320 524q-12 20 -55 49h203q-8 -29 4 -49l285 -465l280 465q8 12 8 24q0 17 -16 25h127q-25 -6 -74 -55l-301 -498v-506q0 -20 25 -49h-191q25 29 25 49z" />
    <glyph glyph-name="z" unicode="z" horiz-adv-x="1044" 
d="M934 0h-934l727 1059h-645q-37 0 -45 -39v88h864l-727 -1059h715q35 0 69 41z" />
    <glyph glyph-name="braceleft" unicode="{" horiz-adv-x="608" 
d="M0 682v-33q98 -6 143 -37q56 -39 56 -133q-6 -364 -6 -397q0 -211 112 -266q70 -35 303 -35v45q-127 0 -182 33q-76 45 -86 178q0 10 -2 104v181q0 163 -12 210q-31 109 -150 130v6q117 24 148 123q14 45 14 198v127q0 139 10 184q25 99 115 127q49 17 145 19v45
q-71 0 -145 -2q-94 -2 -137 -21q-88 -36 -117 -153q-14 -64 -14 -205q0 -41 2 -127t2 -129q0 -96 -54 -135q-43 -33 -145 -37z" />
    <glyph glyph-name="bar" unicode="|" horiz-adv-x="198" 
d="M143 1389h-72v-1522h72v1522z" />
    <glyph glyph-name="braceright" unicode="}" horiz-adv-x="604" 
d="M606 682v-33q-98 -6 -141 -37q-57 -39 -55 -133q6 -364 6 -397q0 -211 -115 -266q-68 -35 -301 -35v45q125 0 180 33q76 45 86 178q2 10 2 104v181q0 163 15 210q30 109 147 130v6q-117 24 -147 123q-15 45 -15 198v127q0 139 -10 184q-25 99 -115 127q-49 17 -143 19v45
q72 0 143 -2q95 -2 140 -21q88 -36 114 -153q17 -64 17 -205q0 -41 -2 -127t-2 -129q0 -96 51 -135q43 -33 145 -37z" />
    <glyph glyph-name="asciitilde" unicode="~" horiz-adv-x="538" 
d="M504 1507q-15 -28 -70 -82q-59 -34 -111 -34q-32 0 -98.5 25.5t-116.5 25.5q-45 0 -100 -21q66 99 143 99q39 0 111 -25t111 -25q45 0 131 37z" />
    <glyph glyph-name="dieresis" unicode="&#xa8;" horiz-adv-x="1024" 
 />
    <glyph glyph-name="copyright" unicode="&#xa9;" horiz-adv-x="1431" 
d="M1368 629q0 -267 -199.5 -455t-482.5 -188q-281 0 -480.5 188t-199.5 455q0 266 199.5 454.5t480.5 188.5q283 0 482.5 -188.5t199.5 -454.5zM1309 629q0 241 -182.5 412t-440.5 171t-440.5 -171t-182.5 -412q0 -242 182.5 -413t440.5 -171t440.5 171t182.5 413zM682 133
q-211 0 -360.5 142.5t-153.5 345.5q-6 204 137 347.5t369 143.5q166 0 268 -37l68 -12v-90q-95 96 -277 96q-188 0 -322.5 -130t-134.5 -312q0 -183 134.5 -311t322.5 -128q207 0 313 91l-26 -101q-183 -45 -338 -45z" />
    <glyph glyph-name="registered" unicode="&#xae;" horiz-adv-x="759" 
d="M653 942q0 -135 -95 -231.5t-230 -96.5t-231.5 96.5t-96.5 231.5t96.5 230.5t231.5 95.5t230 -95.5t95 -230.5zM526 727q-49 2 -92 41q-26 20 -139 158h-35v-176q0 -7 8 -19h-73q10 12 10 19v395q0 8 -10 18h96q59 0 104 -31.5t43 -82.5q0 -78 -82 -109q33 -61 121 -147
q35 -33 68 -50q76 82 76 199q0 121 -86 208t-207 87q-123 0 -209 -86t-86 -209t88 -211t207 -84q112 4 198 80zM379 1047q-2 34 -27 63q-30 33 -71 33h-27v-197h29q32 0 64 29t32 72z" />
    <glyph glyph-name="acute" unicode="&#xb4;" horiz-adv-x="335" 
d="M134 1337h-57l96 267h144z" />
    <glyph glyph-name="paragraph" unicode="&#xb6;" horiz-adv-x="1024" 
d="M929 1435v-70h-127v-1365h-82v1365h-166v-1365h-84v738q-174 8 -275.5 102.5t-101.5 245.5q0 157 107.5 253t285.5 96h443z" />
    <glyph glyph-name="Eth" unicode="&#xd0;" horiz-adv-x="1263" 
d="M29 586h-188v86h188v528q0 23 -28 55h563q272 0 469 -176t203 -440q8 -262 -190.5 -450.5t-473.5 -188.5h-571q28 33 28 55v531zM380 586h-191v-531h377q174 0 334 148q188 170 192 430q4 246 -176 416q-162 151 -352 151h-375v-528h191v-86z" />
    <glyph glyph-name="onequarter" unicode="&#xbc;" horiz-adv-x="1950" 
 />
    <glyph glyph-name="onehalf" unicode="&#xbd;" horiz-adv-x="1950" 
 />
    <glyph glyph-name="threequarters" unicode="&#xbe;" horiz-adv-x="1950" 
 />
    <glyph glyph-name="Agrave" unicode="&#xc0;" horiz-adv-x="1228" 
d="M303 463l-178 -406q-6 -12 -6 -22q0 -23 24 -35h-143q16 6 29 14q32 21 43 47l432 986l-41 92l92 149l545 -1233q10 -22 53 -55h-217q14 33 4 55l-180 408h-457zM737 518l-207 469l-204 -469h411zM541 1337h57l-96 267h-144z" />
    <glyph glyph-name="Aacute" unicode="&#xc1;" horiz-adv-x="1228" 
d="M303 463l-178 -406q-6 -12 -6 -22q0 -23 24 -35h-143q16 6 29 14q32 21 43 47l432 986l-41 92l92 149l545 -1233q10 -22 53 -55h-217q14 33 4 55l-180 408h-457zM737 518l-207 469l-204 -469h411zM596 1337h-57l96 267h143z" />
    <glyph glyph-name="uni1EA2" unicode="&#x1ea2;" horiz-adv-x="1228" 
d="M303 463l-178 -406q-6 -12 -6 -22q0 -23 24 -35h-143q16 6 29 14q32 21 43 47l432 986l-41 92l92 149l545 -1233q10 -22 53 -55h-217q14 33 4 55l-180 408h-457zM737 518l-207 469l-204 -469h411zM527 1339v95q52 35 65 52q28 35 32 95q3 31 -14 66t-55 38
q-25 -1 -46 -22t-21 -58q0 -10 1 -20q1 -3 11 -11l-124 -57q21 32 21 41q-5 69 39 115q47 47 117.5 50t117.5 -39.5t48 -108.5q0 -47 -47 -95q-42 -42 -81 -55v-51z" />
    <glyph glyph-name="Atilde" unicode="&#xc3;" horiz-adv-x="1228" 
d="M303 463l-178 -406q-6 -12 -6 -22q0 -23 24 -35h-143q16 6 29 14q32 21 43 47l432 986l-41 92l92 149l545 -1233q10 -22 53 -55h-217q14 33 4 55l-180 408h-457zM737 518l-207 469l-204 -469h411zM815 1507q-12 -28 -70 -82q-59 -34 -108 -34q-35 0 -100.5 25.5
t-116.5 25.5q-43 0 -101 -21q68 99 146 99q37 0 109.5 -25t109.5 -25q45 0 131 37z" />
    <glyph glyph-name="uni1EA0" unicode="&#x1ea0;" horiz-adv-x="1228" 
d="M303 463l-178 -406q-6 -12 -6 -22q0 -23 24 -35h-143q16 6 29 14q32 21 43 47l432 986l-41 92l92 149l545 -1233q10 -22 53 -55h-217q14 33 4 55l-180 408h-457zM737 518l-207 469l-204 -469h411zM456 -172q0 33 22.5 55.5t54.5 22.5q31 0 53.5 -22.5t22.5 -55.5
q0 -31 -22.5 -53.5t-53.5 -22.5q-32 0 -54.5 22.5t-22.5 53.5z" />
    <glyph glyph-name="Acircumflex" unicode="&#xc2;" horiz-adv-x="1228" 
d="M303 463l-178 -406q-6 -12 -6 -22q0 -23 24 -35h-143q16 6 29 14q32 21 43 47l432 986l-41 92l92 149l545 -1233q10 -22 53 -55h-217q14 33 4 55l-180 408h-457zM737 518l-207 469l-204 -469h411zM289 1331l256 260l261 -260h-39l-219 156l-216 -156h-43z" />
    <glyph glyph-name="uni1EA6" unicode="&#x1ea6;" horiz-adv-x="1228" 
d="M303 463l-178 -406q-6 -12 -6 -22q0 -23 24 -35h-143q16 6 29 14q32 21 43 47l432 986l-41 92l92 149l545 -1233q10 -22 53 -55h-217q14 33 4 55l-180 408h-457zM737 518l-207 469l-204 -469h411zM692 1526h57l-96 267h-144zM289 1331l256 260l261 -260h-39l-219 156
l-216 -156h-43z" />
    <glyph glyph-name="uni1EA4" unicode="&#x1ea4;" horiz-adv-x="1228" 
d="M303 463l-178 -406q-6 -12 -6 -22q0 -23 24 -35h-143q16 6 29 14q32 21 43 47l432 986l-41 92l92 149l545 -1233q10 -22 53 -55h-217q14 33 4 55l-180 408h-457zM737 518l-207 469l-204 -469h411zM719 1516h-57l96 267h143zM289 1331l256 260l261 -260h-39l-219 156
l-216 -156h-43z" />
    <glyph glyph-name="uni1EA8" unicode="&#x1ea8;" horiz-adv-x="1228" 
d="M303 463l-178 -406q-6 -12 -6 -22q0 -23 24 -35h-143q16 6 29 14q32 21 43 47l432 986l-41 92l92 149l545 -1233q10 -22 53 -55h-217q14 33 4 55l-180 408h-457zM737 518l-207 469l-204 -469h411zM659 1537v95q52 35 65 52q28 35 32 95q3 31 -14 66t-55 38
q-25 -1 -46 -22t-21 -58q0 -10 1 -20q1 -3 11 -11l-124 -57q21 32 21 41q-5 69 39 115q47 47 117.5 50t117.5 -39.5t48 -108.5q0 -47 -47 -95q-42 -42 -81 -55v-51zM289 1331l256 260l261 -260h-39l-219 156l-216 -156h-43z" />
    <glyph glyph-name="uni1EAA" unicode="&#x1eaa;" horiz-adv-x="1228" 
d="M303 463l-178 -406q-6 -12 -6 -22q0 -23 24 -35h-143q16 6 29 14q32 21 43 47l432 986l-41 92l92 149l545 -1233q10 -22 53 -55h-217q14 33 4 55l-180 408h-457zM737 518l-207 469l-204 -469h411zM871 1743q-12 -28 -70 -82q-59 -34 -108 -34q-35 0 -100.5 25.5
t-116.5 25.5q-43 0 -101 -21q68 99 146 99q37 0 109.5 -25t109.5 -25q45 0 131 37zM289 1331l256 260l261 -260h-39l-219 156l-216 -156h-43z" />
    <glyph glyph-name="uni1EAC" unicode="&#x1eac;" horiz-adv-x="1228" 
d="M303 463l-178 -406q-6 -12 -6 -22q0 -23 24 -35h-143q16 6 29 14q32 21 43 47l432 986l-41 92l92 149l545 -1233q10 -22 53 -55h-217q14 33 4 55l-180 408h-457zM737 518l-207 469l-204 -469h411zM456 -172q0 33 22.5 55.5t54.5 22.5q31 0 53.5 -22.5t22.5 -55.5
q0 -31 -22.5 -53.5t-53.5 -22.5q-32 0 -54.5 22.5t-22.5 53.5zM289 1331l256 260l261 -260h-39l-219 156l-216 -156h-43z" />
    <glyph glyph-name="Abreve" unicode="&#x102;" horiz-adv-x="1228" 
d="M303 463l-178 -406q-6 -12 -6 -22q0 -23 24 -35h-143q16 6 29 14q32 21 43 47l432 986l-41 92l92 149l545 -1233q10 -22 53 -55h-217q14 33 4 55l-180 408h-457zM737 518l-207 469l-204 -469h411zM332 1499q217 -139 435 0h39q-260 -301 -517 0h43z" />
    <glyph glyph-name="uni1EB0" unicode="&#x1eb0;" horiz-adv-x="1228" 
d="M303 463l-178 -406q-6 -12 -6 -22q0 -23 24 -35h-143q16 6 29 14q32 21 43 47l432 986l-41 92l92 149l545 -1233q10 -22 53 -55h-217q14 33 4 55l-180 408h-457zM737 518l-207 469l-204 -469h411zM569 1497h57l-96 267h-144zM332 1499q217 -139 435 0h39
q-260 -301 -517 0h43z" />
    <glyph glyph-name="uni1EAE" unicode="&#x1eae;" horiz-adv-x="1228" 
d="M303 463l-178 -406q-6 -12 -6 -22q0 -23 24 -35h-143q16 6 29 14q32 21 43 47l432 986l-41 92l92 149l545 -1233q10 -22 53 -55h-217q14 33 4 55l-180 408h-457zM737 518l-207 469l-204 -469h411zM597 1516h-57l96 267h143zM332 1499q217 -139 435 0h39q-260 -301 -517 0
h43z" />
    <glyph glyph-name="uni1EB2" unicode="&#x1eb2;" horiz-adv-x="1228" 
d="M303 463l-178 -406q-6 -12 -6 -22q0 -23 24 -35h-143q16 6 29 14q32 21 43 47l432 986l-41 92l92 149l545 -1233q10 -22 53 -55h-217q14 33 4 55l-180 408h-457zM737 518l-207 469l-204 -469h411zM546 1509v95q52 35 65 52q28 35 32 95q3 31 -14 66t-55 38
q-25 -1 -46 -22t-21 -58q0 -10 1 -20q1 -3 11 -11l-124 -57q21 32 21 41q-5 69 39 115q47 47 117.5 50t117.5 -39.5t48 -108.5q0 -47 -47 -95q-42 -42 -81 -55v-51zM332 1499q217 -139 435 0h39q-260 -301 -517 0h43z" />
    <glyph glyph-name="uni1EB4" unicode="&#x1eb4;" horiz-adv-x="1228" 
d="M303 463l-178 -406q-6 -12 -6 -22q0 -23 24 -35h-143q16 6 29 14q32 21 43 47l432 986l-41 92l92 149l545 -1233q10 -22 53 -55h-217q14 33 4 55l-180 408h-457zM737 518l-207 469l-204 -469h411zM871 1649q-12 -28 -70 -82q-59 -34 -108 -34q-35 0 -100.5 25.5
t-116.5 25.5q-43 0 -101 -21q68 99 146 99q37 0 109.5 -25t109.5 -25q45 0 131 37zM332 1499q217 -139 435 0h39q-260 -301 -517 0h43z" />
    <glyph glyph-name="uni1EB6" unicode="&#x1eb6;" horiz-adv-x="1228" 
d="M303 463l-178 -406q-6 -12 -6 -22q0 -23 24 -35h-143q16 6 29 14q32 21 43 47l432 986l-41 92l92 149l545 -1233q10 -22 53 -55h-217q14 33 4 55l-180 408h-457zM737 518l-207 469l-204 -469h411zM456 -172q0 33 22.5 55.5t54.5 22.5q31 0 53.5 -22.5t22.5 -55.5
q0 -31 -22.5 -53.5t-53.5 -22.5q-32 0 -54.5 22.5t-22.5 53.5zM332 1499q217 -139 435 0h39q-260 -301 -517 0h43z" />
    <glyph glyph-name="Egrave" unicode="&#xc8;" horiz-adv-x="671" 
d="M188 1200v-563h340q37 0 52 45v-147q-27 45 -52 45h-340v-525h349q38 0 79 47l-28 -102h-588q29 33 29 55v1145q0 23 -29 57h580v-102q-27 45 -52 45h-340zM315 1337h58l-97 267h-143z" />
    <glyph glyph-name="Eacute" unicode="&#xc9;" horiz-adv-x="671" 
d="M188 1200v-563h340q37 0 52 45v-147q-27 45 -52 45h-340v-525h349q38 0 79 47l-28 -102h-588q29 33 29 55v1145q0 23 -29 57h580v-102q-27 45 -52 45h-340zM309 1337h-57l96 267h144z" />
    <glyph glyph-name="uni1EBA" unicode="&#x1eba;" horiz-adv-x="720" 
d="M188 1200v-563h340q37 0 52 45v-147q-27 45 -52 45h-340v-525h349q38 0 79 47l-28 -102h-588q29 33 29 55v1145q0 23 -29 57h580v-102q-27 45 -52 45h-340zM282 1339v95q52 35 65 52q28 35 32 95q3 31 -14 66t-55 38q-25 -1 -46 -22t-21 -58q0 -10 1 -20q1 -3 11 -11
l-124 -57q21 32 21 41q-5 69 39 115q47 47 117.5 50t117.5 -39.5t48 -108.5q0 -47 -47 -95q-42 -42 -81 -55v-51z" />
    <glyph glyph-name="uni1EBC" unicode="&#x1ebc;" horiz-adv-x="720" 
d="M188 1200v-563h340q37 0 52 45v-147q-27 45 -52 45h-340v-525h349q38 0 79 47l-28 -102h-588q29 33 29 55v1145q0 23 -29 57h580v-102q-27 45 -52 45h-340zM560 1507q-12 -28 -70 -82q-59 -34 -108 -34q-35 0 -100.5 25.5t-116.5 25.5q-43 0 -101 -21q68 99 146 99
q37 0 109.5 -25t109.5 -25q45 0 131 37z" />
    <glyph glyph-name="uni1EB8" unicode="&#x1eb8;" horiz-adv-x="720" 
d="M188 1200v-563h340q37 0 52 45v-147q-27 45 -52 45h-340v-525h349q38 0 79 47l-28 -102h-588q29 33 29 55v1145q0 23 -29 57h580v-102q-27 45 -52 45h-340zM258 -172q0 33 22.5 55.5t54.5 22.5q31 0 53.5 -22.5t22.5 -55.5q0 -31 -22.5 -53.5t-53.5 -22.5
q-32 0 -54.5 22.5t-22.5 53.5z" />
    <glyph glyph-name="Ecircumflex" unicode="&#xca;" horiz-adv-x="671" 
d="M188 1200v-563h340q37 0 52 45v-147q-27 45 -52 45h-340v-525h349q38 0 79 47l-28 -102h-588q29 33 29 55v1145q0 23 -29 57h580v-102q-27 45 -52 45h-340zM45 1331l256 260l260 -260h-39l-219 156l-215 -156h-43z" />
    <glyph glyph-name="uni1EC0" unicode="&#x1ec0;" horiz-adv-x="671" 
d="M188 1200v-563h340q37 0 52 45v-147q-27 45 -52 45h-340v-525h349q38 0 79 47l-28 -102h-588q29 33 29 55v1145q0 23 -29 57h580v-102q-27 45 -52 45h-340zM457 1516h58l-97 267h-143zM45 1331l256 260l260 -260h-39l-219 156l-215 -156h-43z" />
    <glyph glyph-name="uni1EBE" unicode="&#x1ebe;" horiz-adv-x="671" 
d="M188 1200v-563h340q37 0 52 45v-147q-27 45 -52 45h-340v-525h349q38 0 79 47l-28 -102h-588q29 33 29 55v1145q0 23 -29 57h580v-102q-27 45 -52 45h-340zM479 1535h-57l96 267h144zM45 1331l256 260l260 -260h-39l-219 156l-215 -156h-43z" />
    <glyph glyph-name="uni1EC2" unicode="&#x1ec2;" horiz-adv-x="720" 
d="M188 1200v-563h340q37 0 52 45v-147q-27 45 -52 45h-340v-525h349q38 0 79 47l-28 -102h-588q29 33 29 55v1145q0 23 -29 57h580v-102q-27 45 -52 45h-340zM433 1519v95q52 35 65 52q28 35 32 95q3 31 -14 66t-55 38q-25 -1 -46 -22t-21 -58q0 -10 1 -20q1 -3 11 -11
l-124 -57q21 32 21 41q-5 69 39 115q47 47 117.5 50t117.5 -39.5t48 -108.5q0 -47 -47 -95q-42 -42 -81 -55v-51zM45 1331l256 260l260 -260h-39l-219 156l-215 -156h-43z" />
    <glyph glyph-name="uni1EC4" unicode="&#x1ec4;" horiz-adv-x="720" 
d="M188 1200v-563h340q37 0 52 45v-147q-27 45 -52 45h-340v-525h349q38 0 79 47l-28 -102h-588q29 33 29 55v1145q0 23 -29 57h580v-102q-27 45 -52 45h-340zM617 1725q-12 -28 -70 -82q-59 -34 -108 -34q-35 0 -100.5 25.5t-116.5 25.5q-43 0 -101 -21q68 99 146 99
q37 0 109.5 -25t109.5 -25q45 0 131 37zM45 1331l256 260l260 -260h-39l-219 156l-215 -156h-43z" />
    <glyph glyph-name="uni1EC6" unicode="&#x1ec6;" horiz-adv-x="720" 
d="M188 1200v-563h340q37 0 52 45v-147q-27 45 -52 45h-340v-525h349q38 0 79 47l-28 -102h-588q29 33 29 55v1145q0 23 -29 57h580v-102q-27 45 -52 45h-340zM258 -172q0 33 22.5 55.5t54.5 22.5q31 0 53.5 -22.5t22.5 -55.5q0 -31 -22.5 -53.5t-53.5 -22.5
q-32 0 -54.5 22.5t-22.5 53.5zM45 1331l256 260l260 -260h-39l-219 156l-215 -156h-43z" />
    <glyph glyph-name="Igrave" unicode="&#xcc;" horiz-adv-x="335" 
d="M189 1200v-1145q0 -22 28 -55h-217q29 33 29 55v1145q0 23 -29 57h217q-28 -34 -28 -57zM80 1337h58l-97 267h-143z" />
    <glyph glyph-name="Iacute" unicode="&#xcd;" horiz-adv-x="335" 
d="M188 1200v-1145q0 -22 29 -55h-217q29 33 29 55v1145q0 23 -29 57h217q-29 -34 -29 -57zM135 1337h-57l96 267h143z" />
    <glyph glyph-name="uni1EC8" unicode="&#x1ec8;" horiz-adv-x="321" 
d="M189 1200v-1145q0 -22 28 -55h-217q29 33 29 55v1145q0 23 -29 57h217q-28 -34 -28 -57zM84 1339v95q52 35 65 52q28 35 33 95q2 31 -15 66t-55 38q-25 -1 -46 -22t-21 -58q0 -10 1 -20q1 -3 11 -11l-124 -57q21 32 21 41q-5 69 39 115q48 47 118 50t117 -39.5t48 -108.5
q0 -47 -47 -95q-42 -42 -81 -55v-51z" />
    <glyph glyph-name="Itilde" unicode="&#x128;" horiz-adv-x="321" 
d="M188 1200v-1145q0 -22 29 -55h-217q28 33 28 55v1145q0 23 -28 57h217q-29 -34 -29 -57zM353 1507q-13 -28 -70 -82q-59 -34 -109 -34q-34 0 -99.5 25.5t-117.5 25.5q-43 0 -100 -21q68 99 145 99q37 0 110 -25t110 -25q45 0 131 37z" />
    <glyph glyph-name="uni1ECA" unicode="&#x1eca;" horiz-adv-x="321" 
d="M188 1200v-1145q0 -22 29 -55h-217q29 33 29 55v1145q0 23 -29 57h217q-29 -34 -29 -57zM31 -172q0 33 22.5 55.5t54.5 22.5q31 0 53.5 -22.5t22.5 -55.5q0 -31 -22.5 -53.5t-53.5 -22.5q-32 0 -54.5 22.5t-22.5 53.5z" />
    <glyph glyph-name="Ograve" unicode="&#xd2;" horiz-adv-x="1454" 
d="M1370 629q0 -269 -199.5 -460.5t-482.5 -191.5q-285 0 -486.5 191.5t-201.5 460.5q0 270 201.5 460.5t486.5 190.5q283 0 482.5 -190.5t199.5 -460.5zM1221 616q0 273 -134 433q-139 172 -403 176q-242 6 -393 -170q-141 -168 -141 -424q0 -246 156.5 -423t377.5 -175
q217 2 377 174t160 409zM664 1337h57l-96 267h-144z" />
    <glyph glyph-name="Oacute" unicode="&#xd3;" horiz-adv-x="1454" 
d="M1370 629q0 -269 -199.5 -460.5t-482.5 -191.5q-285 0 -486.5 191.5t-201.5 460.5q0 270 201.5 460.5t486.5 190.5q283 0 482.5 -190.5t199.5 -460.5zM1221 616q0 273 -134 433q-139 172 -403 176q-242 6 -393 -170q-141 -168 -141 -424q0 -246 156.5 -423t377.5 -175
q217 2 377 174t160 409zM698 1337h-57l96 267h144z" />
    <glyph glyph-name="uni1ECE" unicode="&#x1ece;" horiz-adv-x="1474" 
d="M1370 629q0 -269 -199.5 -460.5t-482.5 -191.5q-285 0 -486.5 191.5t-201.5 460.5q0 270 201.5 460.5t486.5 190.5q283 0 482.5 -190.5t199.5 -460.5zM1221 616q0 273 -134 433q-139 172 -403 176q-242 6 -393 -170q-141 -168 -141 -424q0 -246 156.5 -423t377.5 -175
q217 2 377 174t160 409zM659 1339v95q52 35 65 52q28 35 32 95q3 31 -14 66t-55 38q-25 -1 -46 -22t-21 -58q0 -10 1 -20q1 -3 11 -11l-124 -57q21 32 21 41q-5 69 39 115q47 47 117.5 50t117.5 -39.5t48 -108.5q0 -47 -47 -95q-42 -42 -81 -55v-51z" />
    <glyph glyph-name="Otilde" unicode="&#xd5;" horiz-adv-x="1454" 
d="M1370 629q0 -269 -199.5 -460.5t-482.5 -191.5q-285 0 -486.5 191.5t-201.5 460.5q0 270 201.5 460.5t486.5 190.5q283 0 482.5 -190.5t199.5 -460.5zM1221 616q0 273 -134 433q-139 172 -403 176q-242 6 -393 -170q-141 -168 -141 -424q0 -246 156.5 -423t377.5 -175
q217 2 377 174t160 409zM928 1507q-13 -28 -70 -82q-59 -34 -108 -34q-35 0 -100.5 25.5t-117.5 25.5q-43 0 -100 -21q68 99 146 99q36 0 109 -25t110 -25q45 0 131 37z" />
    <glyph glyph-name="uni1ECC" unicode="&#x1ecc;" horiz-adv-x="1474" 
d="M1370 629q0 -269 -199.5 -460.5t-482.5 -191.5q-285 0 -486.5 191.5t-201.5 460.5q0 270 201.5 460.5t486.5 190.5q283 0 482.5 -190.5t199.5 -460.5zM1221 616q0 273 -134 433q-139 172 -403 176q-242 6 -393 -170q-141 -168 -141 -424q0 -246 156.5 -423t377.5 -175
q217 2 377 174t160 409zM608 -172q0 33 22.5 55.5t55.5 22.5q31 0 53.5 -22.5t22.5 -55.5q0 -31 -22.5 -53.5t-53.5 -22.5q-33 0 -55.5 22.5t-22.5 53.5z" />
    <glyph glyph-name="Ocircumflex" unicode="&#xd4;" horiz-adv-x="1454" 
d="M1370 629q0 -269 -199.5 -460.5t-482.5 -191.5q-285 0 -486.5 191.5t-201.5 460.5q0 270 201.5 460.5t486.5 190.5q283 0 482.5 -190.5t199.5 -460.5zM1221 616q0 273 -134 433q-139 172 -403 176q-242 6 -393 -170q-141 -168 -141 -424q0 -246 156.5 -423t377.5 -175
q217 2 377 174t160 409zM403 1331l259 260l260 -260h-41l-217 156l-218 -156h-43z" />
    <glyph glyph-name="uni1ED2" unicode="&#x1ed2;" horiz-adv-x="1454" 
d="M1370 629q0 -269 -199.5 -460.5t-482.5 -191.5q-285 0 -486.5 191.5t-201.5 460.5q0 270 201.5 460.5t486.5 190.5q283 0 482.5 -190.5t199.5 -460.5zM1221 616q0 273 -134 433q-139 172 -403 176q-242 6 -393 -170q-141 -168 -141 -424q0 -246 156.5 -423t377.5 -175
q217 2 377 174t160 409zM824 1506h57l-96 267h-144zM403 1331l259 260l260 -260h-41l-217 156l-218 -156h-43z" />
    <glyph glyph-name="uni1ED0" unicode="&#x1ed0;" horiz-adv-x="1454" 
d="M1370 629q0 -269 -199.5 -460.5t-482.5 -191.5q-285 0 -486.5 191.5t-201.5 460.5q0 270 201.5 460.5t486.5 190.5q283 0 482.5 -190.5t199.5 -460.5zM1221 616q0 273 -134 433q-139 172 -403 176q-242 6 -393 -170q-141 -168 -141 -424q0 -246 156.5 -423t377.5 -175
q217 2 377 174t160 409zM830 1526h-57l96 267h144zM403 1331l259 260l260 -260h-41l-217 156l-218 -156h-43z" />
    <glyph glyph-name="uni1ED4" unicode="&#x1ed4;" horiz-adv-x="1474" 
d="M1370 629q0 -269 -199.5 -460.5t-482.5 -191.5q-285 0 -486.5 191.5t-201.5 460.5q0 270 201.5 460.5t486.5 190.5q283 0 482.5 -190.5t199.5 -460.5zM1221 616q0 273 -134 433q-139 172 -403 176q-242 6 -393 -170q-141 -168 -141 -424q0 -246 156.5 -423t377.5 -175
q217 2 377 174t160 409zM782 1528v95q52 35 65 52q28 35 32 95q3 31 -14 66t-55 38q-25 -1 -46 -22t-21 -58q0 -10 1 -20q1 -3 11 -11l-124 -57q21 32 21 41q-5 69 39 115q47 47 117.5 50t117.5 -39.5t48 -108.5q0 -47 -47 -95q-42 -42 -81 -55v-51zM403 1331l259 260
l260 -260h-41l-217 156l-218 -156h-43z" />
    <glyph glyph-name="uni1ED6" unicode="&#x1ed6;" horiz-adv-x="1454" 
d="M1370 629q0 -269 -199.5 -460.5t-482.5 -191.5q-285 0 -486.5 191.5t-201.5 460.5q0 270 201.5 460.5t486.5 190.5q283 0 482.5 -190.5t199.5 -460.5zM1221 616q0 273 -134 433q-139 172 -403 176q-242 6 -393 -170q-141 -168 -141 -424q0 -246 156.5 -423t377.5 -175
q217 2 377 174t160 409zM966 1741q-13 -28 -70 -82q-59 -34 -108 -34q-35 0 -100.5 25.5t-117.5 25.5q-43 0 -100 -21q68 99 146 99q36 0 109 -25t110 -25q45 0 131 37zM403 1331l259 260l260 -260h-41l-217 156l-218 -156h-43z" />
    <glyph glyph-name="uni1ED8" unicode="&#x1ed8;" horiz-adv-x="1474" 
d="M1370 629q0 -269 -199.5 -460.5t-482.5 -191.5q-285 0 -486.5 191.5t-201.5 460.5q0 270 201.5 460.5t486.5 190.5q283 0 482.5 -190.5t199.5 -460.5zM1221 616q0 273 -134 433q-139 172 -403 176q-242 6 -393 -170q-141 -168 -141 -424q0 -246 156.5 -423t377.5 -175
q217 2 377 174t160 409zM608 -172q0 33 22.5 55.5t55.5 22.5q31 0 53.5 -22.5t22.5 -55.5q0 -31 -22.5 -53.5t-53.5 -22.5q-33 0 -55.5 22.5t-22.5 53.5zM403 1331l259 260l260 -260h-41l-217 156l-218 -156h-43z" />
    <glyph glyph-name="Ugrave" unicode="&#xd9;" horiz-adv-x="1257" 
d="M1112 1202v-1147q0 -22 27 -55h-215q26 33 26 55v103q-151 -181 -420 -181q-186 0 -337 123q-164 131 -164 314v788q0 23 -29 55h217q-29 -32 -29 -55v-788q0 -111 117 -224q101 -96 174 -108q49 -10 101 -10q143 0 270 73q100 58 100 84v973q0 23 -26 55h215
q-27 -32 -27 -55zM541 1337h57l-96 267h-144z" />
    <glyph glyph-name="Uacute" unicode="&#xda;" horiz-adv-x="1257" 
d="M1112 1202v-1147q0 -22 27 -55h-215q26 33 26 55v103q-151 -181 -420 -181q-186 0 -337 123q-164 131 -164 314v788q0 23 -29 55h217q-29 -32 -29 -55v-788q0 -111 117 -224q101 -96 174 -108q49 -10 101 -10q143 0 270 73q100 58 100 84v973q0 23 -26 55h215
q-27 -32 -27 -55zM586 1337h-58l97 267h143z" />
    <glyph glyph-name="uni1EE6" unicode="&#x1ee6;" horiz-adv-x="1245" 
d="M1112 1202v-1147q0 -22 27 -55h-215q26 33 26 55v103q-151 -181 -420 -181q-186 0 -337 123q-164 131 -164 314v788q0 23 -29 55h217q-29 -32 -29 -55v-788q0 -111 117 -224q101 -96 174 -108q49 -10 101 -10q143 0 270 73q100 58 100 84v973q0 23 -26 55h215
q-27 -32 -27 -55zM555 1339v95q52 35 65 52q28 35 32 95q3 31 -14 66t-55 38q-25 -1 -46 -22t-21 -58q0 -10 1 -20q1 -3 11 -11l-124 -57q21 32 21 41q-5 69 39 115q47 47 117.5 50t117.5 -39.5t48 -108.5q0 -47 -47 -95q-42 -42 -81 -55v-51z" />
    <glyph glyph-name="Utilde" unicode="&#x168;" horiz-adv-x="1245" 
d="M1112 1202v-1147q0 -22 27 -55h-215q26 33 26 55v103q-151 -181 -420 -181q-186 0 -337 123q-164 131 -164 314v788q0 23 -29 55h217q-29 -32 -29 -55v-788q0 -111 117 -224q101 -96 174 -108q49 -10 101 -10q143 0 270 73q100 58 100 84v973q0 23 -26 55h215
q-27 -32 -27 -55zM862 1507q-13 -28 -70 -82q-59 -34 -108 -34q-35 0 -100.5 25.5t-117.5 25.5q-43 0 -100 -21q68 99 146 99q36 0 109 -25t110 -25q45 0 131 37z" />
    <glyph glyph-name="uni1EE4" unicode="&#x1ee4;" horiz-adv-x="1245" 
d="M1112 1202v-1147q0 -22 27 -55h-215q26 33 26 55v103q-151 -181 -420 -181q-186 0 -337 123q-164 131 -164 314v788q0 23 -29 55h217q-29 -32 -29 -55v-788q0 -111 117 -224q101 -96 174 -108q49 -10 101 -10q143 0 270 73q100 58 100 84v973q0 23 -26 55h215
q-27 -32 -27 -55zM503 -172q0 33 22.5 55.5t55.5 22.5q31 0 53.5 -22.5t22.5 -55.5q0 -31 -22.5 -53.5t-53.5 -22.5q-33 0 -55.5 22.5t-22.5 53.5z" />
    <glyph glyph-name="Uhorn" unicode="&#x1af;" horiz-adv-x="1245" 
d="M1112 1131v-1076q0 -22 27 -55h-215q26 33 26 55v103q-151 -181 -420 -181q-186 0 -337 123q-164 131 -164 314v788q0 23 -29 55h217q-29 -32 -29 -55v-788q0 -111 117 -224q101 -96 174 -108q49 -10 101 -10q143 0 270 73q100 58 100 84v973q0 23 -26 55h215
q-27 -32 -27 -55v-22l42 44q6 12 0 27l-68 73l100 111l103 -111z" />
    <glyph glyph-name="uni1EEA" unicode="&#x1eea;" horiz-adv-x="1257" 
d="M541 1337h57l-96 267h-144zM1112 1131v-1076q0 -22 27 -55h-215q26 33 26 55v103q-151 -181 -420 -181q-186 0 -337 123q-164 131 -164 314v788q0 23 -29 55h217q-29 -32 -29 -55v-788q0 -111 117 -224q101 -96 174 -108q49 -10 101 -10q143 0 270 73q100 58 100 84v973
q0 23 -26 55h215q-27 -32 -27 -55v-22l42 44q6 12 0 27l-68 73l100 111l103 -111z" />
    <glyph glyph-name="uni1EE8" unicode="&#x1ee8;" horiz-adv-x="1257" 
d="M586 1337h-58l97 267h143zM1112 1131v-1076q0 -22 27 -55h-215q26 33 26 55v103q-151 -181 -420 -181q-186 0 -337 123q-164 131 -164 314v788q0 23 -29 55h217q-29 -32 -29 -55v-788q0 -111 117 -224q101 -96 174 -108q49 -10 101 -10q143 0 270 73q100 58 100 84v973
q0 23 -26 55h215q-27 -32 -27 -55v-22l42 44q6 12 0 27l-68 73l100 111l103 -111z" />
    <glyph glyph-name="uni1EEC" unicode="&#x1eec;" horiz-adv-x="1245" 
d="M555 1339v95q52 35 65 52q28 35 32 95q3 31 -14 66t-55 38q-25 -1 -46 -22t-21 -58q0 -10 1 -20q1 -3 11 -11l-124 -57q21 32 21 41q-5 69 39 115q47 47 117.5 50t117.5 -39.5t48 -108.5q0 -47 -47 -95q-42 -42 -81 -55v-51zM1112 1131v-1076q0 -22 27 -55h-215
q26 33 26 55v103q-151 -181 -420 -181q-186 0 -337 123q-164 131 -164 314v788q0 23 -29 55h217q-29 -32 -29 -55v-788q0 -111 117 -224q101 -96 174 -108q49 -10 101 -10q143 0 270 73q100 58 100 84v973q0 23 -26 55h215q-27 -32 -27 -55v-22l42 44q6 12 0 27l-68 73
l100 111l103 -111z" />
    <glyph glyph-name="uni1EEE" unicode="&#x1eee;" horiz-adv-x="1245" 
d="M862 1507q-13 -28 -70 -82q-59 -34 -108 -34q-35 0 -100.5 25.5t-117.5 25.5q-43 0 -100 -21q68 99 146 99q36 0 109 -25t110 -25q45 0 131 37zM1112 1131v-1076q0 -22 27 -55h-215q26 33 26 55v103q-151 -181 -420 -181q-186 0 -337 123q-164 131 -164 314v788
q0 23 -29 55h217q-29 -32 -29 -55v-788q0 -111 117 -224q101 -96 174 -108q49 -10 101 -10q143 0 270 73q100 58 100 84v973q0 23 -26 55h215q-27 -32 -27 -55v-22l42 44q6 12 0 27l-68 73l100 111l103 -111z" />
    <glyph glyph-name="uni1EF0" unicode="&#x1ef0;" horiz-adv-x="1245" 
d="M503 -172q0 33 22.5 55.5t55.5 22.5q31 0 53.5 -22.5t22.5 -55.5q0 -31 -22.5 -53.5t-53.5 -22.5q-33 0 -55.5 22.5t-22.5 53.5zM1112 1131v-1076q0 -22 27 -55h-215q26 33 26 55v103q-151 -181 -420 -181q-186 0 -337 123q-164 131 -164 314v788q0 23 -29 55h217
q-29 -32 -29 -55v-788q0 -111 117 -224q101 -96 174 -108q49 -10 101 -10q143 0 270 73q100 58 100 84v973q0 23 -26 55h215q-27 -32 -27 -55v-22l42 44q6 12 0 27l-68 73l100 111l103 -111z" />
    <glyph glyph-name="Ohorn" unicode="&#x1a0;" horiz-adv-x="1474" 
d="M1221 616q0 273 -134 433q-139 172 -403 176q-242 6 -393 -170q-141 -168 -141 -424q0 -246 156.5 -423t377.5 -175q217 2 377 174t160 409zM1078 1164q49 -32 93 -74q199 -191 199 -461q0 -269 -199.5 -460.5t-482.5 -191.5q-285 0 -486.5 191.5t-201.5 460.5
q0 270 201.5 460.5t486.5 190.5q202 0 361 -97l39 41q6 12 0 27l-68 73l100 111l103 -111z" />
    <glyph glyph-name="uni1EDC" unicode="&#x1edc;" horiz-adv-x="1454" 
d="M1221 616q0 273 -134 433q-139 172 -403 176q-242 6 -393 -170q-141 -168 -141 -424q0 -246 156.5 -423t377.5 -175q217 2 377 174t160 409zM664 1337h57l-96 267h-144zM1078 1164q49 -32 93 -74q199 -191 199 -461q0 -269 -199.5 -460.5t-482.5 -191.5
q-285 0 -486.5 191.5t-201.5 460.5q0 270 201.5 460.5t486.5 190.5q202 0 361 -97l39 41q6 12 0 27l-68 73l100 111l103 -111z" />
    <glyph glyph-name="uni1EDA" unicode="&#x1eda;" horiz-adv-x="1454" 
d="M1221 616q0 273 -134 433q-139 172 -403 176q-242 6 -393 -170q-141 -168 -141 -424q0 -246 156.5 -423t377.5 -175q217 2 377 174t160 409zM698 1337h-57l96 267h144zM1078 1164q49 -32 93 -74q199 -191 199 -461q0 -269 -199.5 -460.5t-482.5 -191.5
q-285 0 -486.5 191.5t-201.5 460.5q0 270 201.5 460.5t486.5 190.5q202 0 361 -97l39 41q6 12 0 27l-68 73l100 111l103 -111z" />
    <glyph glyph-name="uni1EDE" unicode="&#x1ede;" horiz-adv-x="1474" 
d="M1221 616q0 273 -134 433q-139 172 -403 176q-242 6 -393 -170q-141 -168 -141 -424q0 -246 156.5 -423t377.5 -175q217 2 377 174t160 409zM659 1339v95q52 35 65 52q28 35 32 95q3 31 -14 66t-55 38q-25 -1 -46 -22t-21 -58q0 -10 1 -20q1 -3 11 -11l-124 -57
q21 32 21 41q-5 69 39 115q47 47 117.5 50t117.5 -39.5t48 -108.5q0 -47 -47 -95q-42 -42 -81 -55v-51zM1078 1164q49 -32 93 -74q199 -191 199 -461q0 -269 -199.5 -460.5t-482.5 -191.5q-285 0 -486.5 191.5t-201.5 460.5q0 270 201.5 460.5t486.5 190.5q202 0 361 -97
l39 41q6 12 0 27l-68 73l100 111l103 -111z" />
    <glyph glyph-name="uni1EE0" unicode="&#x1ee0;" horiz-adv-x="1454" 
d="M1221 616q0 273 -134 433q-139 172 -403 176q-242 6 -393 -170q-141 -168 -141 -424q0 -246 156.5 -423t377.5 -175q217 2 377 174t160 409zM928 1507q-13 -28 -70 -82q-59 -34 -108 -34q-35 0 -100.5 25.5t-117.5 25.5q-43 0 -100 -21q68 99 146 99q36 0 109 -25
t110 -25q45 0 131 37zM1078 1164q49 -32 93 -74q199 -191 199 -461q0 -269 -199.5 -460.5t-482.5 -191.5q-285 0 -486.5 191.5t-201.5 460.5q0 270 201.5 460.5t486.5 190.5q202 0 361 -97l39 41q6 12 0 27l-68 73l100 111l103 -111z" />
    <glyph glyph-name="uni1EE2" unicode="&#x1ee2;" horiz-adv-x="1474" 
d="M1221 616q0 273 -134 433q-139 172 -403 176q-242 6 -393 -170q-141 -168 -141 -424q0 -246 156.5 -423t377.5 -175q217 2 377 174t160 409zM608 -172q0 33 22.5 55.5t55.5 22.5q31 0 53.5 -22.5t22.5 -55.5q0 -31 -22.5 -53.5t-53.5 -22.5q-33 0 -55.5 22.5t-22.5 53.5z
M1078 1164q49 -32 93 -74q199 -191 199 -461q0 -269 -199.5 -460.5t-482.5 -191.5q-285 0 -486.5 191.5t-201.5 460.5q0 270 201.5 460.5t486.5 190.5q202 0 361 -97l39 41q6 12 0 27l-68 73l100 111l103 -111z" />
    <glyph glyph-name="Ygrave" unicode="&#x1ef2;" horiz-adv-x="1114" 
d="M424 55v551l-363 596q-12 23 -61 55h229q-8 -32 7 -55l321 -528l317 526q11 14 11 27q0 20 -19 30h144q-17 -6 -31 -14q-35 -20 -53 -49l-340 -565v-574q0 -22 26 -55h-215q27 33 27 55zM541 1337h57l-96 267h-144z" />
    <glyph glyph-name="Yacute" unicode="&#xdd;" horiz-adv-x="1114" 
d="M424 55v551l-363 596q-12 23 -61 55h229q-8 -32 7 -55l321 -528l317 526q11 14 11 27q0 20 -19 30h144q-17 -6 -31 -14q-35 -20 -53 -49l-340 -565v-574q0 -22 26 -55h-215q27 33 27 55zM586 1337h-58l97 267h143z" />
    <glyph glyph-name="uni1EF6" unicode="&#x1ef6;" horiz-adv-x="1114" 
d="M424 55v551l-363 596q-12 23 -61 55h229q-8 -32 7 -55l321 -528l317 526q11 14 11 27q0 20 -19 30h144q-17 -6 -31 -14q-35 -20 -53 -49l-340 -565v-574q0 -22 26 -55h-215q27 33 27 55zM499 1339v95q52 35 65 52q28 35 32 95q3 31 -14 66t-55 38q-25 -1 -46 -22t-21 -58
q0 -10 1 -20q1 -3 11 -11l-124 -57q21 32 21 41q-5 69 39 115q47 47 117.5 50t117.5 -39.5t48 -108.5q0 -47 -47 -95q-42 -42 -81 -55v-51z" />
    <glyph glyph-name="uni1EF8" unicode="&#x1ef8;" horiz-adv-x="1114" 
d="M424 55v551l-363 596q-12 23 -61 55h229q-8 -32 7 -55l321 -528l317 526q11 14 11 27q0 20 -19 30h144q-17 -6 -31 -14q-35 -20 -53 -49l-340 -565v-574q0 -22 26 -55h-215q27 33 27 55zM796 1507q-13 -28 -70 -82q-59 -34 -108 -34q-35 0 -100.5 25.5t-117.5 25.5
q-43 0 -100 -21q68 99 146 99q36 0 109 -25t110 -25q45 0 131 37z" />
    <glyph glyph-name="uni1EF4" unicode="&#x1ef4;" horiz-adv-x="1114" 
d="M424 55v551l-363 596q-12 23 -61 55h229q-8 -32 7 -55l321 -528l317 526q11 14 11 27q0 20 -19 30h144q-17 -6 -31 -14q-35 -20 -53 -49l-340 -565v-574q0 -22 26 -55h-215q27 33 27 55zM428 -172q0 33 22.5 55.5t55.5 22.5q31 0 53.5 -22.5t22.5 -55.5
q0 -31 -22.5 -53.5t-53.5 -22.5q-33 0 -55.5 22.5t-22.5 53.5z" />
    <glyph glyph-name="agrave" unicode="&#xe0;" 
d="M266 408l-155 -357q-5 -10 -5 -20q0 -21 19 -31h-125q14 6 25 12q28 19 38 43l381 869l-36 80l81 133l482 -1088q8 -20 47 -49h-193q13 29 4 49l-159 359h-404zM649 457l-182 413l-180 -413h362zM469 1235h57l-96 266h-143z" />
    <glyph glyph-name="aacute" unicode="&#xe1;" 
d="M266 408l-155 -357q-5 -10 -5 -20q0 -21 19 -31h-125q14 6 25 12q28 19 38 43l381 869l-36 80l81 133l482 -1088q8 -20 47 -49h-193q13 29 4 49l-159 359h-404zM649 457l-182 413l-180 -413h362zM524 1235h-57l96 266h144z" />
    <glyph glyph-name="uni1EA3" unicode="&#x1ea3;" 
d="M266 408l-155 -357q-5 -10 -5 -20q0 -21 19 -31h-125q14 6 25 12q28 19 38 43l381 869l-36 80l81 133l482 -1088q8 -20 47 -49h-193q13 29 4 49l-159 359h-404zM649 457l-182 413l-180 -413h362zM470 1170v95q52 35 65 52q28 35 32 95q3 31 -14 66t-55 38q-25 -1 -46 -22
t-21 -58q0 -10 1 -20q1 -3 11 -11l-124 -57q21 32 21 41q-5 69 39 115q47 47 117.5 50t117.5 -39.5t48 -108.5q0 -47 -47 -95q-42 -42 -81 -55v-51z" />
    <glyph glyph-name="atilde" unicode="&#xe3;" 
d="M266 408l-155 -357q-5 -10 -5 -20q0 -21 19 -31h-125q14 6 25 12q28 19 38 43l381 869l-36 80l81 133l482 -1088q8 -20 47 -49h-193q13 29 4 49l-159 359h-404zM649 457l-182 413l-180 -413h362zM774 1354q-12 -29 -69 -82q-60 -35 -109 -35q-35 0 -100.5 25.5
t-116.5 25.5q-43 0 -100 -20q67 98 145 98q37 0 109.5 -24.5t109.5 -24.5q45 0 131 37z" />
    <glyph glyph-name="uni1EA1" unicode="&#x1ea1;" horiz-adv-x="1093" 
d="M266 408l-155 -357q-5 -10 -5 -20q0 -21 19 -31h-125q14 6 25 12q28 19 38 43l381 869l-36 80l81 133l482 -1088q8 -20 47 -49h-193q13 29 4 49l-159 359h-404zM649 457l-182 413l-180 -413h362zM402 -172q0 33 22.5 55.5t55.5 22.5q31 0 53.5 -22.5t22.5 -55.5
q0 -31 -22.5 -53.5t-53.5 -22.5q-33 0 -55.5 22.5t-22.5 53.5z" />
    <glyph glyph-name="acircumflex" unicode="&#xe2;" horiz-adv-x="1093" 
d="M266 408l-155 -357q-5 -10 -5 -20q0 -21 19 -31h-125q14 6 25 12q28 19 38 43l381 869l-36 80l81 133l482 -1088q8 -20 47 -49h-193q13 29 4 49l-159 359h-404zM649 457l-182 413l-180 -413h362zM260 1200l232 234l233 -234h-35l-196 139l-195 -139h-39z" />
    <glyph glyph-name="uni1EA7" unicode="&#x1ea7;" 
d="M266 408l-155 -357q-5 -10 -5 -20q0 -21 19 -31h-125q14 6 25 12q28 19 38 43l381 869l-36 80l81 133l482 -1088q8 -20 47 -49h-193q13 29 4 49l-159 359h-404zM649 457l-182 413l-180 -413h362zM630 1358h57l-96 266h-143zM260 1200l232 234l233 -234h-35l-196 139
l-195 -139h-39z" />
    <glyph glyph-name="uni1EA5" unicode="&#x1ea5;" 
d="M266 408l-155 -357q-5 -10 -5 -20q0 -21 19 -31h-125q14 6 25 12q28 19 38 43l381 869l-36 80l81 133l482 -1088q8 -20 47 -49h-193q13 29 4 49l-159 359h-404zM649 457l-182 413l-180 -413h362zM665 1395h-57l96 266h144zM260 1200l232 234l233 -234h-35l-196 139
l-195 -139h-39z" />
    <glyph glyph-name="uni1EA9" unicode="&#x1ea9;" 
d="M266 408l-155 -357q-5 -10 -5 -20q0 -21 19 -31h-125q14 6 25 12q28 19 38 43l381 869l-36 80l81 133l482 -1088q8 -20 47 -49h-193q13 29 4 49l-159 359h-404zM649 457l-182 413l-180 -413h362zM612 1368v95q52 35 65 52q28 35 32 95q3 31 -14 66t-55 38q-25 -1 -46 -22
t-21 -58q0 -10 1 -20q1 -3 11 -11l-124 -57q21 32 21 41q-5 69 39 115q47 47 117.5 50t117.5 -39.5t48 -108.5q0 -47 -47 -95q-42 -42 -81 -55v-51zM260 1200l232 234l233 -234h-35l-196 139l-195 -139h-39z" />
    <glyph glyph-name="uni1EAB" unicode="&#x1eab;" 
d="M266 408l-155 -357q-5 -10 -5 -20q0 -21 19 -31h-125q14 6 25 12q28 19 38 43l381 869l-36 80l81 133l482 -1088q8 -20 47 -49h-193q13 29 4 49l-159 359h-404zM649 457l-182 413l-180 -413h362zM821 1561q-12 -29 -69 -82q-60 -35 -109 -35q-35 0 -100.5 25.5
t-116.5 25.5q-43 0 -100 -20q67 98 145 98q37 0 109.5 -24.5t109.5 -24.5q45 0 131 37zM260 1200l232 234l233 -234h-35l-196 139l-195 -139h-39z" />
    <glyph glyph-name="uni1EAD" unicode="&#x1ead;" horiz-adv-x="1093" 
d="M266 408l-155 -357q-5 -10 -5 -20q0 -21 19 -31h-125q14 6 25 12q28 19 38 43l381 869l-36 80l81 133l482 -1088q8 -20 47 -49h-193q13 29 4 49l-159 359h-404zM649 457l-182 413l-180 -413h362zM402 -172q0 33 22.5 55.5t55.5 22.5q31 0 53.5 -22.5t22.5 -55.5
q0 -31 -22.5 -53.5t-53.5 -22.5q-33 0 -55.5 22.5t-22.5 53.5zM260 1200l232 234l233 -234h-35l-196 139l-195 -139h-39z" />
    <glyph glyph-name="abreve" unicode="&#x103;" horiz-adv-x="1093" 
d="M266 408l-155 -357q-5 -10 -5 -20q0 -21 19 -31h-125q14 6 25 12q28 19 38 43l381 869l-36 80l81 133l482 -1088q8 -20 47 -49h-193q13 29 4 49l-159 359h-404zM649 457l-182 413l-180 -413h362zM256 1359q217 -139 435 0h39q-260 -301 -517 0h43z" />
    <glyph glyph-name="uni1EB1" unicode="&#x1eb1;" 
d="M266 408l-155 -357q-5 -10 -5 -20q0 -21 19 -31h-125q14 6 25 12q28 19 38 43l381 869l-36 80l81 133l482 -1088q8 -20 47 -49h-193q13 29 4 49l-159 359h-404zM649 457l-182 413l-180 -413h362zM470 1358h57l-96 266h-143zM256 1359q217 -139 435 0h39q-260 -301 -517 0
h43z" />
    <glyph glyph-name="uni1EAF" unicode="&#x1eaf;" 
d="M266 408l-155 -357q-5 -10 -5 -20q0 -21 19 -31h-125q14 6 25 12q28 19 38 43l381 869l-36 80l81 133l482 -1088q8 -20 47 -49h-193q13 29 4 49l-159 359h-404zM649 457l-182 413l-180 -413h362zM505 1376h-57l96 266h144zM256 1359q217 -139 435 0h39q-260 -301 -517 0
h43z" />
    <glyph glyph-name="uni1EB3" unicode="&#x1eb3;" 
d="M266 408l-155 -357q-5 -10 -5 -20q0 -21 19 -31h-125q14 6 25 12q28 19 38 43l381 869l-36 80l81 133l482 -1088q8 -20 47 -49h-193q13 29 4 49l-159 359h-404zM649 457l-182 413l-180 -413h362zM461 1358v95q52 35 65 52q28 35 32 95q3 31 -14 66t-55 38q-25 -1 -46 -22
t-21 -58q0 -10 1 -20q1 -3 11 -11l-124 -57q21 32 21 41q-5 69 39 115q47 47 117.5 50t117.5 -39.5t48 -108.5q0 -47 -47 -95q-42 -42 -81 -55v-51zM256 1359q217 -139 435 0h39q-260 -301 -517 0h43z" />
    <glyph glyph-name="uni1EB5" unicode="&#x1eb5;" 
d="M266 408l-155 -357q-5 -10 -5 -20q0 -21 19 -31h-125q14 6 25 12q28 19 38 43l381 869l-36 80l81 133l482 -1088q8 -20 47 -49h-193q13 29 4 49l-159 359h-404zM649 457l-182 413l-180 -413h362zM821 1542q-12 -29 -69 -82q-60 -35 -109 -35q-35 0 -100.5 25.5
t-116.5 25.5q-43 0 -100 -20q67 98 145 98q37 0 109.5 -24.5t109.5 -24.5q45 0 131 37zM256 1359q217 -139 435 0h39q-260 -301 -517 0h43z" />
    <glyph glyph-name="uni1EB7" unicode="&#x1eb7;" horiz-adv-x="1093" 
d="M266 408l-155 -357q-5 -10 -5 -20q0 -21 19 -31h-125q14 6 25 12q28 19 38 43l381 869l-36 80l81 133l482 -1088q8 -20 47 -49h-193q13 29 4 49l-159 359h-404zM649 457l-182 413l-180 -413h362zM402 -172q0 33 22.5 55.5t55.5 22.5q31 0 53.5 -22.5t22.5 -55.5
q0 -31 -22.5 -53.5t-53.5 -22.5q-33 0 -55.5 22.5t-22.5 53.5zM256 1359q217 -139 435 0h39q-260 -301 -517 0h43z" />
    <glyph glyph-name="egrave" unicode="&#xe8;" horiz-adv-x="610" 
d="M166 1059v-498h299q33 0 47 41l-2 -131q-21 41 -43 41h-301v-463h307q35 0 70 41l-25 -90h-518q25 29 25 49v1010q0 20 -25 49h512v-88q-16 39 -47 39h-299zM244 1235h57l-96 266h-144z" />
    <glyph glyph-name="eacute" unicode="&#xe9;" horiz-adv-x="608" 
d="M166 1059v-498h299q33 0 47 41l-2 -131q-21 41 -43 41h-301v-463h307q35 0 70 41l-25 -90h-518q25 29 25 49v1010q0 20 -25 49h512v-88q-16 39 -47 39h-299zM258 1235h-57l96 266h143z" />
    <glyph glyph-name="uni1EBB" unicode="&#x1ebb;" horiz-adv-x="628" 
d="M166 1059v-498h299q33 0 47 41l-2 -131q-21 41 -43 41h-301v-463h307q35 0 70 41l-25 -90h-518q25 29 25 49v1010q0 20 -25 49h512v-88q-16 39 -47 39h-299zM243 1170v95q52 35 65 52q28 35 32 95q3 31 -14 66t-55 38q-25 -1 -46 -22t-21 -58q0 -10 1 -20q1 -3 11 -11
l-124 -57q21 32 21 41q-5 69 39 115q47 47 117.5 50t117.5 -39.5t48 -108.5q0 -47 -47 -95q-42 -42 -81 -55v-51z" />
    <glyph glyph-name="uni1EBD" unicode="&#x1ebd;" horiz-adv-x="628" 
d="M166 1059v-498h299q33 0 47 41l-2 -131q-21 41 -43 41h-301v-463h307q35 0 70 41l-25 -90h-518q25 29 25 49v1010q0 20 -25 49h512v-88q-16 39 -47 39h-299zM557 1354q-12 -29 -69 -82q-60 -35 -109 -35q-35 0 -100.5 25.5t-116.5 25.5q-43 0 -100 -20q67 98 145 98
q37 0 109.5 -24.5t109.5 -24.5q45 0 131 37z" />
    <glyph glyph-name="uni1EB9" unicode="&#x1eb9;" horiz-adv-x="628" 
d="M166 1059v-498h299q33 0 47 41l-2 -131q-21 41 -43 41h-301v-463h307q35 0 70 41l-25 -90h-518q25 29 25 49v1010q0 20 -25 49h512v-88q-16 39 -47 39h-299zM194 -172q0 33 22.5 55.5t55.5 22.5q31 0 53.5 -22.5t22.5 -55.5q0 -31 -22.5 -53.5t-53.5 -22.5
q-33 0 -55.5 22.5t-22.5 53.5z" />
    <glyph glyph-name="ecircumflex" unicode="&#xea;" horiz-adv-x="610" 
d="M166 1059v-498h299q33 0 47 41l-2 -131q-21 41 -43 41h-301v-463h307q35 0 70 41l-25 -90h-518q25 29 25 49v1010q0 20 -25 49h512v-88q-16 39 -47 39h-299zM35 1200l231 234l234 -234h-35l-197 139l-194 -139h-39z" />
    <glyph glyph-name="uni1EC1" unicode="&#x1ec1;" horiz-adv-x="610" 
d="M166 1059v-498h299q33 0 47 41l-2 -131q-21 41 -43 41h-301v-463h307q35 0 70 41l-25 -90h-518q25 29 25 49v1010q0 20 -25 49h512v-88q-16 39 -47 39h-299zM212 1624h144l96 -266h-57zM35 1200l231 234l234 -234h-35l-197 139l-194 -139h-39z" />
    <glyph glyph-name="uni1EBF" unicode="&#x1ebf;" horiz-adv-x="608" 
d="M166 1059v-498h299q33 0 47 41l-2 -131q-21 41 -43 41h-301v-463h307q35 0 70 41l-25 -90h-518q25 29 25 49v1010q0 20 -25 49h512v-88q-16 39 -47 39h-299zM437 1377h-57l96 266h143zM35 1200l231 234l234 -234h-35l-197 139l-194 -139h-39z" />
    <glyph glyph-name="uni1EC3" unicode="&#x1ec3;" horiz-adv-x="628" 
d="M166 1059v-498h299q33 0 47 41l-2 -131q-21 41 -43 41h-301v-463h307q35 0 70 41l-25 -90h-518q25 29 25 49v1010q0 20 -25 49h512v-88q-16 39 -47 39h-299zM357 1378v95q52 35 65 52q28 35 32 95q3 31 -14 66t-55 38q-25 -1 -46 -22t-21 -58q0 -10 1 -20q1 -3 11 -11
l-124 -57q21 32 21 41q-5 69 39 115q47 47 117.5 50t117.5 -39.5t48 -108.5q0 -47 -47 -95q-42 -42 -81 -55v-51zM35 1200l231 234l234 -234h-35l-197 139l-194 -139h-39z" />
    <glyph glyph-name="uni1EC5" unicode="&#x1ec5;" horiz-adv-x="628" 
d="M166 1059v-498h299q33 0 47 41l-2 -131q-21 41 -43 41h-301v-463h307q35 0 70 41l-25 -90h-518q25 29 25 49v1010q0 20 -25 49h512v-88q-16 39 -47 39h-299zM557 1571q-12 -29 -69 -82q-60 -35 -109 -35q-35 0 -100.5 25.5t-116.5 25.5q-43 0 -100 -20q67 98 145 98
q37 0 109.5 -24.5t109.5 -24.5q45 0 131 37zM35 1200l231 234l234 -234h-35l-197 139l-194 -139h-39z" />
    <glyph glyph-name="uni1EC7" unicode="&#x1ec7;" horiz-adv-x="628" 
d="M166 1059v-498h299q33 0 47 41l-2 -131q-21 41 -43 41h-301v-463h307q35 0 70 41l-25 -90h-518q25 29 25 49v1010q0 20 -25 49h512v-88q-16 39 -47 39h-299zM194 -172q0 33 22.5 55.5t55.5 22.5q31 0 53.5 -22.5t22.5 -55.5q0 -31 -22.5 -53.5t-53.5 -22.5
q-33 0 -55.5 22.5t-22.5 53.5zM35 1200l231 234l234 -234h-35l-197 139l-194 -139h-39z" />
    <glyph glyph-name="igrave" unicode="&#xec;" horiz-adv-x="313" 
d="M167 1059v-1010q0 -20 24 -49h-190q24 29 24 49v1010q0 20 -24 49h190q-24 -29 -24 -49zM60 1235h58l-97 266h-143z" />
    <glyph glyph-name="iacute" unicode="&#xed;" horiz-adv-x="333" 
d="M166 1059v-1010q0 -20 24 -49h-190q25 29 25 49v1010q0 20 -25 49h190q-24 -29 -24 -49zM115 1235h-58l97 266h143z" />
    <glyph glyph-name="uni1EC9" unicode="&#x1ec9;" horiz-adv-x="276" 
d="M166 1059v-1010q0 -20 24 -49h-190q25 29 25 49v1010q0 20 -25 49h190q-24 -29 -24 -49zM73 1170v95q52 35 65 52q28 35 32 95q3 31 -14 66t-55 38q-25 -1 -46 -22t-21 -58q0 -10 1 -20q1 -3 11 -11l-124 -57q21 32 21 41q-5 69 39 115q47 47 117.5 50t117.5 -39.5
t48 -108.5q0 -47 -47 -95q-42 -42 -81 -55v-51z" />
    <glyph glyph-name="itilde" unicode="&#x129;" horiz-adv-x="276" 
d="M166 1059v-1010q0 -20 24 -49h-190q25 29 25 49v1010q0 20 -25 49h190q-24 -29 -24 -49zM377 1354q-12 -29 -69 -82q-60 -35 -109 -35q-35 0 -100.5 25.5t-116.5 25.5q-43 0 -100 -20q67 98 145 98q37 0 109.5 -24.5t109.5 -24.5q45 0 131 37z" />
    <glyph glyph-name="uni1ECB" unicode="&#x1ecb;" horiz-adv-x="276" 
d="M166 1059v-1010q0 -20 24 -49h-190q25 29 25 49v1010q0 20 -25 49h190q-24 -29 -24 -49zM15 -172q0 33 22.5 55.5t55.5 22.5q31 0 53.5 -22.5t22.5 -55.5q0 -31 -22.5 -53.5t-53.5 -22.5q-33 0 -55.5 22.5t-22.5 53.5z" />
    <glyph glyph-name="ograve" unicode="&#xf2;" horiz-adv-x="1302" 
d="M1208 555q0 -238 -176 -405.5t-426 -167.5t-428 167.5t-178 405.5t178 405.5t428 167.5t426 -167.5t176 -405.5zM1075 545q0 239 -114 381q-125 149 -357 155q-215 4 -346 -151q-127 -148 -127 -373q0 -217 139.5 -373.5t333.5 -154.5q191 2 331 153.5t140 362.5z
M561 1235h57l-96 266h-143z" />
    <glyph glyph-name="oacute" unicode="&#xf3;" horiz-adv-x="1302" 
d="M1208 555q0 -238 -176 -405.5t-426 -167.5t-428 167.5t-178 405.5t178 405.5t428 167.5t426 -167.5t176 -405.5zM1075 545q0 239 -114 381q-125 149 -357 155q-215 4 -346 -151q-127 -148 -127 -373q0 -217 139.5 -373.5t333.5 -154.5q191 2 331 153.5t140 362.5z
M657 1235h-57l96 266h144z" />
    <glyph glyph-name="uni1ECF" unicode="&#x1ecf;" horiz-adv-x="1302" 
d="M1208 555q0 -238 -176 -405.5t-426 -167.5t-428 167.5t-178 405.5t178 405.5t428 167.5t426 -167.5t176 -405.5zM1075 545q0 239 -114 381q-125 149 -357 155q-215 4 -346 -151q-127 -148 -127 -373q0 -217 139.5 -373.5t333.5 -154.5q191 2 331 153.5t140 362.5z
M545 1170v95q52 35 65 52q28 35 32 95q3 31 -14 66t-55 38q-25 -1 -46 -22t-21 -58q0 -10 1 -20q1 -3 11 -11l-124 -57q21 32 21 41q-5 69 39 115q47 47 117.5 50t117.5 -39.5t48 -108.5q0 -47 -47 -95q-42 -42 -81 -55v-51z" />
    <glyph glyph-name="otilde" unicode="&#xf5;" horiz-adv-x="1302" 
d="M1208 555q0 -238 -176 -405.5t-426 -167.5t-428 167.5t-178 405.5t178 405.5t428 167.5t426 -167.5t176 -405.5zM1075 545q0 239 -114 381q-125 149 -357 155q-215 4 -346 -151q-127 -148 -127 -373q0 -217 139.5 -373.5t333.5 -154.5q191 2 331 153.5t140 362.5z
M836 1354q-13 -29 -70 -82q-59 -35 -109 -35q-34 0 -99.5 25.5t-117.5 25.5q-43 0 -100 -20q68 98 145 98q37 0 110 -24.5t110 -24.5q45 0 131 37z" />
    <glyph glyph-name="uni1ECD" unicode="&#x1ecd;" horiz-adv-x="1302" 
d="M1208 555q0 -238 -176 -405.5t-426 -167.5t-428 167.5t-178 405.5t178 405.5t428 167.5t426 -167.5t176 -405.5zM1075 545q0 239 -114 381q-125 149 -357 155q-215 4 -346 -151q-127 -148 -127 -373q0 -217 139.5 -373.5t333.5 -154.5q191 2 331 153.5t140 362.5z
M527 -172q0 33 22.5 55.5t55.5 22.5q31 0 53.5 -22.5t22.5 -55.5q0 -31 -22.5 -53.5t-53.5 -22.5q-33 0 -55.5 22.5t-22.5 53.5z" />
    <glyph glyph-name="ocircumflex" unicode="&#xf4;" horiz-adv-x="1302" 
d="M1208 555q0 -238 -176 -405.5t-426 -167.5t-428 167.5t-178 405.5t178 405.5t428 167.5t426 -167.5t176 -405.5zM1075 545q0 239 -114 381q-125 149 -357 155q-215 4 -346 -151q-127 -148 -127 -373q0 -217 139.5 -373.5t333.5 -154.5q191 2 331 153.5t140 362.5z
M387 1200l231 234l234 -234h-35l-196 139l-195 -139h-39z" />
    <glyph glyph-name="uni1ED3" unicode="&#x1ed3;" horiz-adv-x="1302" 
d="M1208 555q0 -238 -176 -405.5t-426 -167.5t-428 167.5t-178 405.5t178 405.5t428 167.5t426 -167.5t176 -405.5zM1075 545q0 239 -114 381q-125 149 -357 155q-215 4 -346 -151q-127 -148 -127 -373q0 -217 139.5 -373.5t333.5 -154.5q191 2 331 153.5t140 362.5z
M760 1358h57l-96 266h-143zM387 1200l231 234l234 -234h-35l-196 139l-195 -139h-39z" />
    <glyph glyph-name="uni1ED1" unicode="&#x1ed1;" horiz-adv-x="1302" 
d="M1208 555q0 -238 -176 -405.5t-426 -167.5t-428 167.5t-178 405.5t178 405.5t428 167.5t426 -167.5t176 -405.5zM1075 545q0 239 -114 381q-125 149 -357 155q-215 4 -346 -151q-127 -148 -127 -373q0 -217 139.5 -373.5t333.5 -154.5q191 2 331 153.5t140 362.5z
M789 1368h-57l96 266h144zM387 1200l231 234l234 -234h-35l-196 139l-195 -139h-39z" />
    <glyph glyph-name="uni1ED5" unicode="&#x1ed5;" horiz-adv-x="1302" 
d="M1208 555q0 -238 -176 -405.5t-426 -167.5t-428 167.5t-178 405.5t178 405.5t428 167.5t426 -167.5t176 -405.5zM1075 545q0 239 -114 381q-125 149 -357 155q-215 4 -346 -151q-127 -148 -127 -373q0 -217 139.5 -373.5t333.5 -154.5q191 2 331 153.5t140 362.5z
M751 1344v95q52 35 65 52q28 35 32 95q3 31 -14 66t-55 38q-25 -1 -46 -22t-21 -58q0 -10 1 -20q1 -3 11 -11l-124 -57q21 32 21 41q-5 69 39 115q47 47 117.5 50t117.5 -39.5t48 -108.5q0 -47 -47 -95q-42 -42 -81 -55v-51zM387 1200l231 234l234 -234h-35l-196 139
l-195 -139h-39z" />
    <glyph glyph-name="uni1ED7" unicode="&#x1ed7;" horiz-adv-x="1302" 
d="M1208 555q0 -238 -176 -405.5t-426 -167.5t-428 167.5t-178 405.5t178 405.5t428 167.5t426 -167.5t176 -405.5zM1075 545q0 239 -114 381q-125 149 -357 155q-215 4 -346 -151q-127 -148 -127 -373q0 -217 139.5 -373.5t333.5 -154.5q191 2 331 153.5t140 362.5z
M927 1561q-13 -29 -70 -82q-59 -35 -109 -35q-34 0 -99.5 25.5t-117.5 25.5q-43 0 -100 -20q68 98 145 98q37 0 110 -24.5t110 -24.5q45 0 131 37zM387 1200l231 234l234 -234h-35l-196 139l-195 -139h-39z" />
    <glyph glyph-name="uni1ED9" unicode="&#x1ed9;" horiz-adv-x="1302" 
d="M1208 555q0 -238 -176 -405.5t-426 -167.5t-428 167.5t-178 405.5t178 405.5t428 167.5t426 -167.5t176 -405.5zM1075 545q0 239 -114 381q-125 149 -357 155q-215 4 -346 -151q-127 -148 -127 -373q0 -217 139.5 -373.5t333.5 -154.5q191 2 331 153.5t140 362.5z
M527 -172q0 33 22.5 55.5t55.5 22.5q31 0 53.5 -22.5t22.5 -55.5q0 -31 -22.5 -53.5t-53.5 -22.5q-33 0 -55.5 22.5t-22.5 53.5zM387 1200l231 234l234 -234h-35l-196 139l-195 -139h-39z" />
    <glyph glyph-name="glyph217" unicode="&#xf9;" horiz-adv-x="1124" 
d="M981 1059v-1010q0 -20 25 -49h-191q25 29 25 49v90q-135 -157 -371 -157q-166 0 -301 106q-143 115 -143 277v694q0 20 -25 49h190q-24 -29 -24 -49v-694q0 -97 104 -197q88 -84 154 -96q43 -9 86 -9q127 0 240 64q90 51 90 74v858q0 20 -25 49h191q-25 -29 -25 -49z
M489 1235h58l-96 266h-144z" />
    <glyph glyph-name="glyph218" unicode="&#xfa;" horiz-adv-x="1124" 
d="M981 1059v-1010q0 -20 25 -49h-191q25 29 25 49v90q-135 -157 -371 -157q-166 0 -301 106q-143 115 -143 277v694q0 20 -25 49h190q-24 -29 -24 -49v-694q0 -97 104 -197q88 -84 154 -96q43 -9 86 -9q127 0 240 64q90 51 90 74v858q0 20 -25 49h191q-25 -29 -25 -49z
M524 1235h-57l96 266h144z" />
    <glyph glyph-name="uni1EE7" unicode="&#x1ee7;" 
d="M981 1059v-1010q0 -20 25 -49h-191q25 29 25 49v90q-135 -157 -371 -157q-166 0 -301 106q-143 115 -143 277v694q0 20 -25 49h190q-24 -29 -24 -49v-694q0 -97 104 -197q88 -84 154 -96q43 -9 86 -9q127 0 240 64q90 51 90 74v858q0 20 -25 49h191q-25 -29 -25 -49z
M498 1170v95q52 35 65 52q28 35 32 95q3 31 -14 66t-55 38q-25 -1 -46 -22t-21 -58q0 -10 1 -20q1 -3 11 -11l-124 -57q21 32 21 41q-5 69 39 115q47 47 117.5 50t117.5 -39.5t48 -108.5q0 -47 -47 -95q-42 -42 -81 -55v-51z" />
    <glyph glyph-name="utilde" unicode="&#x169;" 
d="M981 1059v-1010q0 -20 25 -49h-191q25 29 25 49v90q-135 -157 -371 -157q-166 0 -301 106q-143 115 -143 277v694q0 20 -25 49h190q-24 -29 -24 -49v-694q0 -97 104 -197q88 -84 154 -96q43 -9 86 -9q127 0 240 64q90 51 90 74v858q0 20 -25 49h191q-25 -29 -25 -49z
M789 1354q-13 -29 -70 -82q-59 -35 -109 -35q-34 0 -99.5 25.5t-117.5 25.5q-43 0 -100 -20q68 98 145 98q37 0 110 -24.5t110 -24.5q45 0 131 37z" />
    <glyph glyph-name="uni1EE5" unicode="&#x1ee5;" 
d="M981 1059v-1010q0 -20 25 -49h-191q25 29 25 49v90q-135 -157 -371 -157q-166 0 -301 106q-143 115 -143 277v694q0 20 -25 49h190q-24 -29 -24 -49v-694q0 -97 104 -197q88 -84 154 -96q43 -9 86 -9q127 0 240 64q90 51 90 74v858q0 20 -25 49h191q-25 -29 -25 -49z
M423 -172q0 33 22.5 55.5t55.5 22.5q31 0 53.5 -22.5t22.5 -55.5q0 -31 -22.5 -53.5t-53.5 -22.5q-33 0 -55.5 22.5t-22.5 53.5z" />
    <glyph glyph-name="uhorn" unicode="&#x1b0;" 
d="M981 1059v-1010q0 -20 25 -49h-191q25 29 25 49v90q-135 -157 -371 -157q-166 0 -301 106q-143 115 -143 277v694q0 20 -25 49h190q-24 -29 -24 -49v-694q0 -97 104 -197q88 -84 154 -96q43 -9 86 -9q127 0 240 64q90 51 90 74v858q0 20 -25 49h191q-25 -29 -25 -49z
M1022 1109l-68 73l100 111l103 -111l-196 -214l-24 25l85 89q6 12 0 27z" />
    <glyph glyph-name="uni1EEB" unicode="&#x1eeb;" horiz-adv-x="1124" 
d="M489 1235h58l-96 266h-144zM981 990v-941q0 -20 25 -49h-191q25 29 25 49v90q-135 -157 -371 -157q-166 0 -301 106q-143 115 -143 277v694q0 20 -25 49h190q-24 -29 -24 -49v-694q0 -97 104 -197q88 -84 154 -96q43 -9 86 -9q127 0 240 64q90 51 90 74v858q0 20 -25 49
h191q-25 -29 -25 -49v-20l41 43q6 12 0 27l-68 73l100 111l103 -111z" />
    <glyph glyph-name="uni1EE9" unicode="&#x1ee9;" horiz-adv-x="1124" 
d="M524 1235h-57l96 266h144zM981 990v-941q0 -20 25 -49h-191q25 29 25 49v90q-135 -157 -371 -157q-166 0 -301 106q-143 115 -143 277v694q0 20 -25 49h190q-24 -29 -24 -49v-694q0 -97 104 -197q88 -84 154 -96q43 -9 86 -9q127 0 240 64q90 51 90 74v858q0 20 -25 49
h191q-25 -29 -25 -49v-20l41 43q6 12 0 27l-68 73l100 111l103 -111z" />
    <glyph glyph-name="uni1EED" unicode="&#x1eed;" 
d="M498 1170v95q52 35 65 52q28 35 32 95q3 31 -14 66t-55 38q-25 -1 -46 -22t-21 -58q0 -10 1 -20q1 -3 11 -11l-124 -57q21 32 21 41q-5 69 39 115q47 47 117.5 50t117.5 -39.5t48 -108.5q0 -47 -47 -95q-42 -42 -81 -55v-51zM981 990v-941q0 -20 25 -49h-191q25 29 25 49
v90q-135 -157 -371 -157q-166 0 -301 106q-143 115 -143 277v694q0 20 -25 49h190q-24 -29 -24 -49v-694q0 -97 104 -197q88 -84 154 -96q43 -9 86 -9q127 0 240 64q90 51 90 74v858q0 20 -25 49h191q-25 -29 -25 -49v-20l41 43q6 12 0 27l-68 73l100 111l103 -111z" />
    <glyph glyph-name="uni1EEF" unicode="&#x1eef;" 
d="M789 1354q-13 -29 -70 -82q-59 -35 -109 -35q-34 0 -99.5 25.5t-117.5 25.5q-43 0 -100 -20q68 98 145 98q37 0 110 -24.5t110 -24.5q45 0 131 37zM981 990v-941q0 -20 25 -49h-191q25 29 25 49v90q-135 -157 -371 -157q-166 0 -301 106q-143 115 -143 277v694
q0 20 -25 49h190q-24 -29 -24 -49v-694q0 -97 104 -197q88 -84 154 -96q43 -9 86 -9q127 0 240 64q90 51 90 74v858q0 20 -25 49h191q-25 -29 -25 -49v-20l41 43q6 12 0 27l-68 73l100 111l103 -111z" />
    <glyph glyph-name="uni1EF1" unicode="&#x1ef1;" 
d="M423 -172q0 33 22.5 55.5t55.5 22.5q31 0 53.5 -22.5t22.5 -55.5q0 -31 -22.5 -53.5t-53.5 -22.5q-33 0 -55.5 22.5t-22.5 53.5zM981 990v-941q0 -20 25 -49h-191q25 29 25 49v90q-135 -157 -371 -157q-166 0 -301 106q-143 115 -143 277v694q0 20 -25 49h190
q-24 -29 -24 -49v-694q0 -97 104 -197q88 -84 154 -96q43 -9 86 -9q127 0 240 64q90 51 90 74v858q0 20 -25 49h191q-25 -29 -25 -49v-20l41 43q6 12 0 27l-68 73l100 111l103 -111z" />
    <glyph glyph-name="ohorn" unicode="&#x1a1;" horiz-adv-x="1294" 
d="M1075 545q0 239 -114 381q-125 149 -357 155q-215 4 -346 -151q-127 -148 -127 -373q0 -217 139.5 -373.5t333.5 -154.5q191 2 331 153.5t140 362.5zM989 998q22 -17 43 -37q176 -168 176 -406t-176 -405.5t-426 -167.5t-428 167.5t-178 405.5t178 405.5t428 167.5
q202 0 356 -109l60 63q6 12 0 27l-68 73l100 111l103 -111z" />
    <glyph glyph-name="uni1EDD" unicode="&#x1edd;" horiz-adv-x="1302" 
d="M1075 545q0 239 -114 381q-125 149 -357 155q-215 4 -346 -151q-127 -148 -127 -373q0 -217 139.5 -373.5t333.5 -154.5q191 2 331 153.5t140 362.5zM561 1235h57l-96 266h-143zM989 998q22 -17 43 -37q176 -168 176 -406t-176 -405.5t-426 -167.5t-428 167.5t-178 405.5
t178 405.5t428 167.5q202 0 356 -109l60 63q6 12 0 27l-68 73l100 111l103 -111z" />
    <glyph glyph-name="uni1EDB" unicode="&#x1edb;" horiz-adv-x="1302" 
d="M1075 545q0 239 -114 381q-125 149 -357 155q-215 4 -346 -151q-127 -148 -127 -373q0 -217 139.5 -373.5t333.5 -154.5q191 2 331 153.5t140 362.5zM657 1235h-57l96 266h144zM989 998q22 -17 43 -37q176 -168 176 -406t-176 -405.5t-426 -167.5t-428 167.5t-178 405.5
t178 405.5t428 167.5q202 0 356 -109l60 63q6 12 0 27l-68 73l100 111l103 -111z" />
    <glyph glyph-name="uni1EDF" unicode="&#x1edf;" horiz-adv-x="1302" 
d="M1075 545q0 239 -114 381q-125 149 -357 155q-215 4 -346 -151q-127 -148 -127 -373q0 -217 139.5 -373.5t333.5 -154.5q191 2 331 153.5t140 362.5zM545 1170v95q52 35 65 52q28 35 32 95q3 31 -14 66t-55 38q-25 -1 -46 -22t-21 -58q0 -10 1 -20q1 -3 11 -11l-124 -57
q21 32 21 41q-5 69 39 115q47 47 117.5 50t117.5 -39.5t48 -108.5q0 -47 -47 -95q-42 -42 -81 -55v-51zM989 998q22 -17 43 -37q176 -168 176 -406t-176 -405.5t-426 -167.5t-428 167.5t-178 405.5t178 405.5t428 167.5q202 0 356 -109l60 63q6 12 0 27l-68 73l100 111
l103 -111z" />
    <glyph glyph-name="uni1EE1" unicode="&#x1ee1;" horiz-adv-x="1302" 
d="M1075 545q0 239 -114 381q-125 149 -357 155q-215 4 -346 -151q-127 -148 -127 -373q0 -217 139.5 -373.5t333.5 -154.5q191 2 331 153.5t140 362.5zM836 1354q-13 -29 -70 -82q-59 -35 -109 -35q-34 0 -99.5 25.5t-117.5 25.5q-43 0 -100 -20q68 98 145 98
q37 0 110 -24.5t110 -24.5q45 0 131 37zM989 998q22 -17 43 -37q176 -168 176 -406t-176 -405.5t-426 -167.5t-428 167.5t-178 405.5t178 405.5t428 167.5q202 0 356 -109l60 63q6 12 0 27l-68 73l100 111l103 -111z" />
    <glyph glyph-name="uni1EE3" unicode="&#x1ee3;" horiz-adv-x="1302" 
d="M1075 545q0 239 -114 381q-125 149 -357 155q-215 4 -346 -151q-127 -148 -127 -373q0 -217 139.5 -373.5t333.5 -154.5q191 2 331 153.5t140 362.5zM527 -172q0 33 22.5 55.5t55.5 22.5q31 0 53.5 -22.5t22.5 -55.5q0 -31 -22.5 -53.5t-53.5 -22.5q-33 0 -55.5 22.5
t-22.5 53.5zM989 998q22 -17 43 -37q176 -168 176 -406t-176 -405.5t-426 -167.5t-428 167.5t-178 405.5t178 405.5t428 167.5q202 0 356 -109l60 63q6 12 0 27l-68 73l100 111l103 -111z" />
    <glyph glyph-name="ygrave" unicode="&#x1ef3;" horiz-adv-x="976" 
d="M375 49v486l-320 524q-12 20 -55 49h203q-8 -29 4 -49l285 -465l280 465q8 12 8 24q0 17 -16 25h127q-25 -6 -74 -55l-301 -498v-506q0 -20 25 -49h-191q25 29 25 49zM448 1235h57l-96 266h-143z" />
    <glyph glyph-name="glyph235" unicode="&#xfd;" horiz-adv-x="976" 
d="M375 49v486l-320 524q-12 20 -55 49h203q-8 -29 4 -49l285 -465l280 465q8 12 8 24q0 17 -16 25h127q-25 -6 -74 -55l-301 -498v-506q0 -20 25 -49h-191q25 29 25 49zM516 1235h-57l96 266h144z" />
    <glyph glyph-name="uni1EF7" unicode="&#x1ef7;" horiz-adv-x="976" 
d="M375 49v486l-320 524q-12 20 -55 49h203q-8 -29 4 -49l285 -465l280 465q8 12 8 24q0 17 -16 25h127q-25 -6 -74 -55l-301 -498v-506q0 -20 25 -49h-191q25 29 25 49zM451 1170v95q52 35 65 52q28 35 32 95q3 31 -14 66t-55 38q-25 -1 -46 -22t-21 -58q0 -10 1 -20
q1 -3 11 -11l-124 -57q21 32 21 41q-5 69 39 115q47 47 117.5 50t117.5 -39.5t48 -108.5q0 -47 -47 -95q-42 -42 -81 -55v-51z" />
    <glyph glyph-name="uni1EF9" unicode="&#x1ef9;" horiz-adv-x="976" 
d="M375 49v486l-320 524q-12 20 -55 49h203q-8 -29 4 -49l285 -465l280 465q8 12 8 24q0 17 -16 25h127q-25 -6 -74 -55l-301 -498v-506q0 -20 25 -49h-191q25 29 25 49zM770 1354q-13 -29 -70 -82q-59 -35 -109 -35q-34 0 -99.5 25.5t-117.5 25.5q-43 0 -100 -20
q68 98 145 98q37 0 110 -24.5t110 -24.5q45 0 131 37z" />
    <glyph glyph-name="uni1EF5" unicode="&#x1ef5;" horiz-adv-x="976" 
d="M375 49v486l-320 524q-12 20 -55 49h203q-8 -29 4 -49l285 -465l280 465q8 12 8 24q0 17 -16 25h127q-25 -6 -74 -55l-301 -498v-506q0 -20 25 -49h-191q25 29 25 49zM367 -172q0 33 22.5 55.5t55.5 22.5q31 0 53.5 -22.5t22.5 -55.5q0 -31 -22.5 -53.5t-53.5 -22.5
q-33 0 -55.5 22.5t-22.5 53.5z" />
    <glyph glyph-name="divide" unicode="&#xf7;" horiz-adv-x="1706" 
 />
    <glyph glyph-name="ugrave" horiz-adv-x="582" 
 />
    <glyph glyph-name="uacute" horiz-adv-x="580" 
 />
    <glyph glyph-name="yacute" horiz-adv-x="629" 
 />
    <glyph glyph-name="Ccaron" unicode="&#x10c;" horiz-adv-x="1274" 
 />
    <glyph glyph-name="ccaron" unicode="&#x10d;" horiz-adv-x="922" 
 />
    <glyph glyph-name="Dslash" unicode="&#x110;" horiz-adv-x="1263" 
d="M29 586h-188v86h188v528q0 23 -28 55h563q272 0 469 -176t203 -440q8 -262 -190.5 -450.5t-473.5 -188.5h-571q28 33 28 55v531zM380 586h-191v-531h377q174 0 334 148q188 170 192 430q4 246 -176 416q-162 151 -352 151h-375v-528h191v-86z" />
    <glyph glyph-name="dcroat" unicode="&#x111;" horiz-adv-x="1128" 
d="M25 518h-166v74h166v467q0 20 -25 49h498q240 0 414 -155.5t178 -387.5q6 -233 -169 -399t-415 -166h-506q25 29 25 49v469zM334 516h-168v-467h332q154 0 297 129q166 152 168 379q4 219 -156 369q-141 135 -311 135l-328 -2l-2 -467h168v-76z" />
    <glyph glyph-name="quoteleft" unicode="&#x2018;" horiz-adv-x="233" 
d="M133 1178l68 -74l-101 -113l-100 113l150 168l24 -27l-41 -43q-6 -12 0 -24z" />
    <glyph glyph-name="quoteright" unicode="&#x2019;" horiz-adv-x="307" 
d="M74 1090l-68 73l100 113l103 -113l-152 -168l-22 25l39 43q6 12 0 27z" />
    <glyph glyph-name="quotedblleft" unicode="&#x201c;" horiz-adv-x="497" 
d="M389 1178l68 -74l-101 -113l-100 113l150 168l24 -27l-41 -43q-6 -12 0 -24zM133 1178l68 -74l-101 -113l-100 113l150 168l24 -27l-41 -43q-6 -12 0 -24z" />
    <glyph glyph-name="quotedblright" unicode="&#x201d;" horiz-adv-x="489" 
d="M319 1090l-67 73l100 113l103 -113l-152 -168l-23 25l39 43q6 12 0 27zM74 1090l-68 73l100 113l103 -113l-152 -168l-22 25l39 43q6 12 0 27z" />
    <glyph glyph-name="ellipsis" unicode="&#x2026;" horiz-adv-x="953" 
d="M0 14l100 113l103 -113l-103 -112zM331 15l100 112l102 -112l-102 -113zM642 14l101 113l102 -113l-102 -112z" />
    </font>
</defs>
</svg>
